<?xml version="1.0" standalone="no"?>
<!DOCTYPE svg PUBLIC "-//W3C//DTD SVG 20010904//EN"
 "http://www.w3.org/TR/2001/REC-SVG-20010904/DTD/svg10.dtd">
<svg version="1.0" xmlns="http://www.w3.org/2000/svg"
 width="114.000000pt" height="114.000000pt" viewBox="0 0 114.000000 114.000000"
 preserveAspectRatio="xMidYMid meet">
<metadata>
Created by potrace 1.11, written by Peter Selinger 2001-2013
</metadata>
<g transform="translate(0.000000,114.000000) scale(0.100000,-0.100000)"
fill="#000000" stroke="none">
<path d="M170 570 l0 -570 405 0 405 0 0 570 0 570 -405 0 -405 0 0 -570z
m300 315 c-5 -14 -7 -32 -4 -40 9 -22 51 -30 79 -15 32 17 55 -1 55 -41 0 -51
-59 -89 -116 -75 -73 19 -98 106 -48 165 31 37 47 40 34 6z m346 -37 c-3 -13
-26 -121 -51 -242 -48 -238 -63 -275 -136 -340 -37 -34 -94 -66 -117 -66 -5 0
8 18 29 40 48 50 70 122 100 320 33 221 75 310 149 310 29 0 32 -3 26 -22z
m84 -29 c0 -10 -4 -21 -10 -24 -5 -3 -10 1 -10 9 0 9 -9 16 -20 16 -25 0 -26
16 -3 29 22 12 43 -3 43 -30z m-382 -325 c89 -62 53 -204 -52 -204 -28 0 -72
33 -81 60 -10 31 12 61 43 58 42 -3 72 18 72 50 0 16 -5 33 -12 40 -17 17 4
15 30 -4z"/>
</g>
</svg>
