<?xml version="1.0" encoding="utf-8"?>
<!-- Generator: Adobe Illustrator 19.1.0, SVG Export Plug-In . SVG Version: 6.00 Build 0)  -->
<!DOCTYPE svg PUBLIC "-//W3C//DTD SVG 1.1//EN" "http://www.w3.org/Graphics/SVG/1.1/DTD/svg11.dtd">
<svg version="1.1" id="Layer_1" xmlns="http://www.w3.org/2000/svg" xmlns:xlink="http://www.w3.org/1999/xlink" x="0px" y="0px"
	 viewBox="0 0 690 409.2" enable-background="new 0 0 690 409.2" xml:space="preserve">
<g>
	<path d="M58.5,275.1h18.3c8.5,0,14.5,5,14.5,13.1c0,5.4-2.7,9.3-6.8,11.3v0.1c5.5,1.5,9,6.6,9,12.9c0,9.3-7.1,14.6-16.1,14.6h-19
		V275.1z M76.9,297.7c5.4,0,9.1-3.7,9.1-9.1c0-5.3-3.4-8.9-9.2-8.9h-13v18H76.9z M77.6,322.7c6.5,0,10.5-3.9,10.5-10.2
		c0-6.2-4.4-10.3-10.6-10.3H63.8v20.5H77.6z"/>
	<path d="M142.1,310.6h-21.6l-6.1,16.6h-5.6l19.7-52.1h5.7l19.7,52.1h-5.6L142.1,310.6z M131.2,280.5c0,0-1.1,4.3-2.1,6.7l-7.2,18.9
		h18.5l-7-18.9c-0.9-2.4-2.1-6.7-2.1-6.7H131.2z"/>
	<path d="M171.8,275.1h15.9c5.5,0,8,0.5,10.1,1.4c5,2.2,8.1,7.1,8.1,13.4c0,7-4.1,12.5-10.2,14.1v0.1c0,0,0.5,0.7,1.4,2.1l11.7,21
		h-6l-12.2-22h-13.5v22h-5.3V275.1z M189.9,300.7c6.5,0,10.6-4.1,10.6-10.6c0-4.3-1.8-7.5-4.9-9.1c-1.6-0.8-3.5-1.3-7.6-1.3h-10.9
		v21H189.9z"/>
	<path d="M229,275.1h15.9c5.5,0,8,0.5,10.1,1.4c5,2.2,8.1,7.1,8.1,13.4c0,7-4.1,12.5-10.2,14.1v0.1c0,0,0.5,0.7,1.4,2.1l11.7,21h-6
		l-12.2-22h-13.5v22H229V275.1z M247,300.7c6.5,0,10.6-4.1,10.6-10.6c0-4.3-1.8-7.5-4.9-9.1c-1.6-0.8-3.5-1.3-7.6-1.3h-10.9v21H247z
		"/>
	<path d="M297.3,304.9l-18.1-29.7h6l11.4,18.9c1.6,2.7,3.3,6.2,3.3,6.2h0.2c0,0,1.6-3.5,3.3-6.2l11.4-18.9h6l-18,29.7v22.4h-5.4
		V304.9z"/>
	<path d="M340.8,275.1h5.5l14.1,30.6c1.2,2.7,2.6,6.4,2.6,6.4h0.2c0,0,1.5-3.7,2.7-6.4l14.1-30.6h5.4l4.3,52.1h-5.3l-3-36.5
		c-0.2-2.8-0.2-7.3-0.2-7.3H381c0,0-1.6,4.6-2.8,7.3l-12.6,26.8h-5L348,290.8c-1.2-2.6-2.9-7.4-2.9-7.4h-0.2c0,0,0.1,4.6-0.2,7.4
		l-3,36.5h-5.3L340.8,275.1z"/>
	<path d="M436.3,274.2c15.2,0,27.4,11.6,27.4,26.6c0,15.3-12.2,27.3-27.4,27.3s-27.4-12-27.4-27.3
		C409,285.9,421.1,274.2,436.3,274.2z M436.3,323.4c12.1,0,21.9-9.8,21.9-22.5c0-12.5-9.8-21.9-21.9-21.9
		c-12.2,0-21.9,9.4-21.9,21.9C414.5,313.6,424.2,323.4,436.3,323.4z"/>
	<path d="M484.8,275.1h15.9c5.5,0,8,0.5,10.1,1.4c5,2.2,8.1,7.1,8.1,13.4c0,7-4.1,12.5-10.2,14.1v0.1c0,0,0.5,0.7,1.4,2.1l11.7,21
		h-6l-12.2-22h-13.5v22h-5.3V275.1z M502.8,300.7c6.5,0,10.6-4.1,10.6-10.6c0-4.3-1.8-7.5-4.9-9.1c-1.6-0.8-3.5-1.3-7.6-1.3h-10.9
		v21H502.8z"/>
	<path d="M542,275.1h30.3v4.6h-25v19h20.4v4.6h-20.4v19.4h26.4v4.6H542V275.1z"/>
	<path d="M594.3,274.4h5.5l-4.3,12.8h-4.2L594.3,274.4z"/>
	<path d="M619.1,317.5c0,0,5.6,5.7,14.1,5.7c5.9,0,10.7-3.4,10.7-9c0-13.1-26.8-9.8-26.8-26c0-7.5,6.8-14,16.7-14
		c9.3,0,14.4,5,14.4,5l-2.6,4.3c0,0-4.7-4.4-11.8-4.4c-6.9,0-11.3,4.4-11.3,9c0,12.4,26.8,8.8,26.8,26c0,7.8-6.2,14.1-16.3,14.1
		c-11,0-17-6.7-17-6.7L619.1,317.5z"/>
</g>
<g>
	<path d="M226.3,376.5c0,4.1-3.3,6.4-7,6.7c-1,0.1-1.8,0.1-2.7,0.1h-7.4v-24.9h6.7c1.1,0,1.8,0,3,0.1c3.9,0.3,6.4,2.5,6.4,6
		c0,3.1-1.8,5.1-4.8,5.7C224.4,370.8,226.3,373.1,226.3,376.5z M210.6,369.7h5.9c0.6,0,1.2,0,2-0.1c2.7-0.2,5.3-1.5,5.3-5
		c0-3.6-2.7-4.8-5.5-5c-0.8,0-1.5,0-2.3,0h-5.4V369.7z M224.8,376.6c0-2.9-1.5-5.5-5.9-5.7c-0.9-0.1-1.4-0.1-2-0.1h-6.4v11.2h6.6
		c0.6,0,1.2,0,1.7-0.1C221.8,381.8,224.8,380.3,224.8,376.6z"/>
	<path d="M238.6,373.8l-3.6,9.5h-1.5l9.8-24.9h1.9l9.7,24.9h-1.5l-3.7-9.5H238.6z M249.2,372.6l-5-13.1l-5.1,13.1H249.2z"/>
	<path d="M280.5,383.3h-1.6c-0.6-1.6-1.1-3.1-1.5-6.5c-0.3-2.7-1.6-5.1-4.5-5.3c-0.8,0-1.6,0-2.2,0h-5.7v11.9h-1.4v-24.9h6.8
		c1.3,0,2.4,0,3.6,0.2c3.9,0.5,6.3,2.5,6.3,6.2c0,3.2-2.1,5.4-5.1,6c2.3,0.8,3.5,3,3.8,5.7C279.2,380.2,279.7,381.8,280.5,383.3z
		 M270.6,370.3c1,0,1.6,0,2.7-0.1c3.2-0.3,5.3-2.3,5.3-5.3c0-3.1-1.8-4.7-5.1-5.1c-1-0.1-2-0.2-3.3-0.2h-5.4v10.7H270.6z"/>
	<path d="M320.7,371.4h-3.9v11.8c-2.1,0.4-4.8,0.6-6.7,0.6c-6,0-9.9-1.3-9.9-6.4c0-3.7,2.8-6.1,6.8-6.6c-3.1-0.5-5.5-2.3-5.5-6.1
		c0-4,3.5-6.9,8.5-6.9c1.8,0,3.1,0.1,4.5,0.4v1.2c-1.5-0.3-2.8-0.4-4.6-0.4c-3.9,0-6.9,2.1-6.9,5.6c0,4.4,3.4,5.3,6.3,5.5
		c0.7,0,1.5,0,2.3,0h3.7v-5.1h1.4v5.1h3.9V371.4z M310.2,382.6c1.6,0,3.7-0.1,5.2-0.4v-10.8h-3.7c-0.8,0-1.5,0-2.3,0.1
		c-4.3,0.4-7.6,1.9-7.6,5.9C301.8,381.5,305,382.6,310.2,382.6z"/>
	<path d="M357.6,383.3h-16.3v-24.9h1.4v23.7h14.9V383.3z"/>
	<path d="M386.2,370.9c0,7.5-4.5,13-11.7,13c-7.2,0-11.8-5.5-11.8-13c0-7.5,4.5-13,11.8-13C381.7,357.9,386.2,363.3,386.2,370.9z
		 M384.6,370.9c0-7.5-4.5-11.8-10.2-11.8c-5.7,0-10.2,4.3-10.2,11.8c0,7.5,4.5,11.8,10.2,11.8C380.1,382.6,384.6,378.3,384.6,370.9z
		"/>
	<path d="M412.7,374.7c0,0.6,0,1.4-0.1,2.4c-0.3,3.9-3.1,6.8-8.5,6.8c-5.4,0-8.2-2.9-8.5-6.8c-0.1-1-0.1-1.8-0.1-2.4v-16.3h1.4v16.3
		c0,0.8,0,1.5,0.1,2.2c0.3,3.1,2.5,5.7,7.1,5.7c4.7,0,6.8-2.5,7.1-5.7c0.1-0.7,0.1-1.4,0.1-2.2v-16.3h1.4V374.7z"/>
	<path d="M439.3,383.3l-14.6-23.6c0.1,3.3,0.1,7.1,0.1,10.3v13.3h-1.4v-24.9h2.2l14.7,23.6c-0.1-3.3-0.1-7.1-0.1-10.4v-13.3h1.4
		l0,24.9H439.3z"/>
	<path d="M472.3,372v11.3H471v-6l-0.9,2.3c-2,3-5.1,4.2-8.3,4.2c-6.7,0-11.4-5-11.4-12.9c0-7.7,5.1-13,12.1-13
		c5.8,0,9.1,3.5,9.9,8.1l0.1,0.4h-1.4l-0.1-0.4c-0.8-3.9-3.7-6.9-8.6-6.9c-5.5,0-10.4,4.3-10.4,11.8c0,7.8,4.4,11.8,9.9,11.8
		c3.9,0,9-2.6,9-9.5h-8V372H472.3z"/>
	<path d="M499,383.3h-16.3v-24.9h15.9v1.2h-14.5v10.7h13.6v1.2h-13.6v10.7H499V383.3z"/>
</g>
<circle cx="338.8" cy="106.8" r="90.9"/>
<path fill="#FFFFFF" d="M294.6,168c18.2-1.6,10.4-71.1,10.4-82.3c0-10.3,14.2-20.2,27.8-27c0,0-6.2,4.4-6.2,15.9s0,72.3,0,72.3
	S324.5,165.3,294.6,168z"/>
<g>
	<path fill="#FFFFFF" d="M338.3,47.1c2.4-0.9,5-1.9,7.6-2.4c16.4-3.1,26.3,1.5,28.9,15.4c4.2,21.8-15.5,29.8-33.1,33.9l-0.1,0.3
		c14.5-2.5,37.8-3,42.5,21.6c4.4,22.8-11.4,47.6-60.3,44.7l0,0c36,0.5,39.1-32.2,36.1-47.5c-2-10.6-9.1-20.6-23.9-17.7l0,0
		c18-3.4,20.8-19.1,17.6-35.6c-1.5-8.1-6.8-14.6-13.9-13.2 M345.3,36.3 M334.1,48.2 M333.4,49.6l0-0.1"/>
</g>
</svg>
