<?xml version="1.0" encoding="utf-8"?>
<!-- Generator: Adobe Illustrator 19.1.0, SVG Export Plug-In . SVG Version: 6.00 Build 0)  -->
<!DOCTYPE svg PUBLIC "-//W3C//DTD SVG 1.1//EN" "http://www.w3.org/Graphics/SVG/1.1/DTD/svg11.dtd">
<svg version="1.1" id="Layer_1" xmlns="http://www.w3.org/2000/svg" xmlns:xlink="http://www.w3.org/1999/xlink" x="0px" y="0px"
	 viewBox="147 575.6 100 141" enable-background="new 147 575.6 100 141" xml:space="preserve">
<g id="Layer_1_1_" display="none">
	<g display="inline">
		<g>
			<path fill="#C82B53" d="M166.1,502.6l-16.8,107.3c-6.3,40.4-40.2,77.3-79,90.6c-47.1,16.2-95.8-7.5-95.8-60.3
				c0-36.5,42.4-69.6,88.8-76.7c74.2-11.4,165.4,19.8,165.4,81.9c0,20.9-15.9,38.4-40.6,38.4c-17.8,0-33.1-14.4-27.5-33.4
				c15-0.3,37.9-17.9,26.8-45.6c-10.6-26.6-61.6-48-125.6-38.1c-54.4,8.4-69.8,29-71.2,79.2c-1.3,45.2,29.4,56.8,41.3,57.7
				c38.9,3.2,45.8-31.7,53.9-85.7L102,511.5c6.2-41.2,35.1-49.9,59.8-51.2l10.6-0.3"/>
		</g>
		<g>
			<path fill="#C82B53" d="M164.6,468.3V468c-39,0-73-30.6-111.7-30.6c-19.3,0-33.1,7.8-33.1,24.3c0,14.7,10.9,19.7,20.6,19.7
				c8.4,0,17.2-4.1,23.7-12.5c36.5,16.5,12.8,62.4-23.7,62.4c-23.1,0-46.2-17.5-46.2-44.9c0-29,24-51.8,57.7-51.8
				c39.6,0,77.4,31.2,114.5,31.2"/>
		</g>
	</g>
	<g display="inline">
		<g>
			<path fill="#432A4F" d="M437.9,491.1l-16.8,107.3c-6.3,40.4-40.2,77.3-79,90.6c-47.1,16.2-95.8-7.5-95.8-60.3
				c0-36.5,42.4-69.6,88.8-76.7c74.2-11.4,165.4,19.8,165.4,81.9c0,20.9-15.9,38.4-40.6,38.4c-17.8,0-33.1-14.4-27.5-33.4
				c15-0.3,37.9-17.9,26.8-45.6c-10.6-26.6-61.6-48-125.6-38.1c-54.4,8.4-69.8,29-71.2,79.2c-1.3,45.2,29.4,56.8,41.3,57.7
				c38.9,3.2,45.8-31.7,53.9-85.7L373.8,500c6.2-41.2,35.1-49.9,59.8-51.2l10.6-0.3"/>
		</g>
		<g>
			<path fill="#432A4F" d="M436.3,456.8v-0.3c-39,0-73-30.6-111.7-30.6c-19.3,0-33.1,7.8-33.1,24.3c0,14.7,10.9,19.7,20.6,19.7
				c8.4,0,17.2-4.1,23.7-12.5c36.5,16.5,12.8,62.4-23.7,62.4c-23.1,0-46.2-17.5-46.2-44.9c0-29,24-51.8,57.7-51.8
				c39.6,0,77.4,31.2,114.5,31.2"/>
		</g>
	</g>
	<g display="inline">
		<g>
			<path fill="#BF2C5A" d="M63.1,656.6c0,0-5.1,32.8-5.2,32.8C56,701.7,45.6,713,33.8,717.1c-14.4,4.9-29.3-2.3-29.3-18.4
				c0-11.2,13-21.3,27.1-23.4c22.7-3.5,50.6,6,50.6,25c0,6.4-4.9,11.7-12.4,11.7c-5.4,0-10.1-4.4-8.4-10.2
				c4.6-0.1,11.6-5.5,8.2-13.9c-3.3-8.1-18.8-14.7-38.4-11.6c-16.6,2.6-21.3,8.9-21.8,24.2c-0.4,13.8,9,17.4,12.6,17.7
				c11.9,1,14-9.7,16.5-26.2l5-32.5c1.9-12.6,10.7-15.3,18.3-15.6l3.2-0.1"/>
		</g>
		<g>
			<path fill="#BF2C5A" d="M62.6,646.2L62.6,646.2c-11.9-0.1-22.3-9.4-34.1-9.4c-5.9,0-10.1,2.4-10.1,7.4c0,4.5,3.3,6,6.3,6
				c2.6,0,5.2-1.2,7.2-3.8c11.2,5.1,3.9,19.1-7.2,19.1c-7.1,0-14.1-5.3-14.1-13.7c0-8.9,7.3-15.8,17.6-15.8c12.1,0,23.7,9.5,35,9.5"
				/>
		</g>
	</g>
	
		<circle display="inline" fill="none" stroke="#BF2C5A" stroke-width="0.6001" stroke-miterlimit="10" cx="43.4" cy="681.2" r="61.8"/>
</g>
<g id="Layer_4" display="none">
	<circle display="inline" fill="#383335" cx="230" cy="630" r="181.5"/>
	<circle display="inline" fill="none" stroke="#353033" stroke-width="1.152" stroke-miterlimit="10" cx="230" cy="630" r="194.8"/>
	<g display="inline">
		<g>
			<path fill="#F9F9FA" d="M301.5,585.6l-17.2,90.6c-5.3,34.1-35,69.6-66.7,83.5c-53.1,23.3-106.3-0.7-106.3-58
				c0-23.3,23-57.3,58.5-57.3c60.6,0,52.4,52,51.9,55.5c-2.7,16.7-17.3,29.2-38.1,29.2c-15,0-29-18.6-24.3-34.7
				c12.6-0.3,25.8,1.6,35.7-10.1c0,0,17.1-42.7-29.2-39.2c-29,2.2-54.9,34.6-51.8,64.1c4.1,38,33.5,58.8,64.9,57.7
				c32.9-1.2,55.1-38.4,62-83.9l13.7-89.8c5.3-34.8,18.7-77,47.1-82l16-0.3"/>
		</g>
		<g>
			<path fill="#F9F9FA" d="M305.7,519.9v-0.3c-32.9,0-61.6-27.5-94.3-27.5c-16.3,0-27.9,8.3-27.9,22.2c0,12.4,9.2,16.6,17.4,16.6
				c7.1,0,14.5-3.4,20-10.5c30.8,14,10.8,52.7-20,52.7c-19.5,0-39-14.8-39-37.9c0-24.5,20.3-43.7,48.7-43.7
				c33.5,0,65.3,26.3,96.7,26.3"/>
		</g>
		<g>
			<path fill="#F9F9FA" d="M220.3,675.5c6.4,23.9,1.7,46.6-24.7,54.5c-29.7,8.9-59.6-24.9-33.8-48.4c-1.2,1.1,12.3,9.5,22.4,3.7
				c7.5-4.3,13.9-8.2,13.9-21.1"/>
		</g>
		<g>
			<path fill="#F9F9FA" d="M299.8,534.3L299.8,534.3c11.1,0.4,20.6,10,31.7,10.4c5.5,0.2,9.5-2.5,9.7-7.2c0.1-4.2-3-5.7-5.7-5.8
				c-2.4-0.1-4.9,1-6.9,3.4c-10.3-5-3.1-18,7.3-17.6c6.6,0.2,13.1,5.4,12.8,13.3c-0.3,8.3-7.3,14.6-17,14.3
				c-11.3-0.3-21.9-9.6-32.5-9.9"/>
		</g>
	</g>
	<rect x="47.4" y="851.9" display="inline" fill="none" width="365.2" height="31.8"/>
	
		<text transform="matrix(1 0 0 1 47.4129 875.8496)" display="inline" fill="#969696" font-family="'KeplerStd-ScnDisp'" font-size="35px" letter-spacing="14">JENNY SLATER</text>
	<rect x="137.8" y="892.8" display="inline" fill="none" width="193.5" height="21.8"/>
	
		<text transform="matrix(1 0 0 1 137.7546 906.4502)" display="inline" fill="#7B7879" font-family="'KeplerStd-ScnDisp'" font-size="20px" letter-spacing="5">graphic designer</text>
</g>
<g id="Layer_3" display="none">
	<g display="inline">
		<path fill="#2D2D2D" d="M156.4,707.4c0,0-16.3,156.6-16.3,156.7c-12.4,86.5-98,123.8-149.5,78.5c-17-14.9-23.1-40.1-17.2-61.6
			c9.7-35.8,37-53.9,71.2-59.2c71.7-11,172.2,16.6,172.2,76.6c0,20.2-15.4,37.1-39.2,37.1c-17.2,0-32-13.9-26.5-32.3
			c-0.1,0.3,12.2-3.5,13.3-4.2c5.5-3.3,10.2-8.2,12.8-14.1c22.8-51-93.4-52.6-121.6-50.8c-67,4.3-82.7,85.7-33.8,98.9
			c24.4,6.6,47.9-12.9,57.1-61.1l15.7-155.8c6-39.8,34-48.3,57.8-49.5l10.2-0.3"/>
	</g>
	<g display="inline">
		<path fill="#2D2D2D" d="M144,711.7c0,0-101-60.7-98.3-20.1c24-12.6,32.4,27,10.1,33.3c-14.1,4-31.2-2.7-36-19.5
			c-5-17.7,6.2-44.2,48.7-44c25.2,0.1,51.5,0.4,93.2,3.5"/>
	</g>
	<g display="inline">
		<g>
			
				<linearGradient id="SVGID_1_" gradientUnits="userSpaceOnUse" x1="303.305" y1="602.5901" x2="437.2" y2="602.5901" gradientTransform="matrix(1 0 0 -1 0 1338)">
				<stop  offset="0" style="stop-color:#925086"/>
				<stop  offset="7.918656e-02" style="stop-color:#8F4C82"/>
				<stop  offset="1" style="stop-color:#802963"/>
			</linearGradient>
			<path fill="url(#SVGID_1_)" d="M396.4,728.3c0,0-56.1-24-66.2,8c24-12.6,32.4,27,10.1,33.3c-14.1,4-31.2-2.7-36-19.5
				c-5-17.7,9.4-43.5,30.7-46c53.9-6.5,94.2-8.7,102.2,22.3"/>
		</g>
		
			<linearGradient id="SVGID_2_" gradientUnits="userSpaceOnUse" x1="245.3" y1="463.0347" x2="488.7" y2="463.0347" gradientTransform="matrix(1 0 0 -1 0 1338)">
			<stop  offset="0.157" style="stop-color:#9D447F"/>
			<stop  offset="0.422" style="stop-color:#943E7B"/>
			<stop  offset="1" style="stop-color:#7E3473"/>
		</linearGradient>
		<path fill="url(#SVGID_2_)" d="M245.3,878.5c9.7-35.8,37-53.9,71.2-59.2c71.7-11,172.2,16.6,172.2,76.6
			c0,20.2-15.4,37.1-39.2,37.1c-17.2,0-32-13.9-26.5-32.3c-0.1,0.3,12.2-3.5,13.3-4.2c5.5-3.3,10.2-8.2,12.8-14.1
			c22.8-51-93.4-52.6-121.6-50.8c-67,4.3-82.7,85.7-33.8,98.9"/>
		<g>
			<g>
				
					<linearGradient id="SVGID_3_" gradientUnits="userSpaceOnUse" x1="263.6" y1="504.505" x2="437.3" y2="504.505" gradientTransform="matrix(1 0 0 -1 0 1338)">
					<stop  offset="0" style="stop-color:#7E467D"/>
					<stop  offset="1" style="stop-color:#8B2E6A"/>
				</linearGradient>
				<path fill="url(#SVGID_3_)" d="M362.7,858.5l6.6-93.3c6-39.8,34-48.3,57.8-49.5l10.2,10.7 M437.3,726.5
					c0,0-22.5,136.5-22.5,136.7c-12.4,86.5-98.2,110.4-151.2,66.8"/>
			</g>
		</g>
		<path fill="#FFFFFF" d="M267.5,917.7c0,0,44.7,19,72.5,0c34.2-23.4,54.4-86.5,8.1-86.7"/>
		<g>
			<g>
				
					<linearGradient id="SVGID_4_" gradientUnits="userSpaceOnUse" x1="298.937" y1="607.9237" x2="433.0832" y2="607.9237" gradientTransform="matrix(1 0 0 -1 0 1338)">
					<stop  offset="0.157" style="stop-color:#E95560"/>
					<stop  offset="0.5212" style="stop-color:#D44663"/>
					<stop  offset="0.8301" style="stop-color:#B3376D"/>
					<stop  offset="1" style="stop-color:#A73171"/>
				</linearGradient>
				<path fill="url(#SVGID_4_)" d="M392,722.4c0,0-56.1-24-66.2,8c24-12.6,32.4,27,10.1,33.3c-14.1,4-31.2-2.7-36-19.5
					c-5-17.7,10.1-40.2,30.7-46c24.2-6.9,58.5,0.4,100.2,3.5"/>
			</g>
			<g>
				
					<linearGradient id="SVGID_5_" gradientUnits="userSpaceOnUse" x1="241.3078" y1="513.0569" x2="486.9" y2="513.0569" gradientTransform="matrix(1 0 0 -1 0 1338)">
					<stop  offset="0.157" style="stop-color:#E95560"/>
					<stop  offset="0.5212" style="stop-color:#D44663"/>
					<stop  offset="0.8301" style="stop-color:#B3376D"/>
					<stop  offset="1" style="stop-color:#A73171"/>
				</linearGradient>
				<path fill="url(#SVGID_5_)" d="M426.5,743.2c0,0-16.3,106.6-16.3,106.7c-12.4,86.5-98,123.8-149.5,78.5
					c-17-14.9-23.1-40.1-17.2-61.6c9.7-35.8,37-53.9,71.2-59.2c71.7-11,172.2,16.6,172.2,76.6c0,20.2-15.4,37.1-39.2,37.1
					c-11.4,0-25.3-6.5-26.7-18.2c-1.2-9.6,3.7-12.5,13.5-18.3c5.5-3.3,10.2-8.2,12.8-14.1c22.8-51-93.4-52.6-121.6-50.8
					c-67,4.3-82.7,85.7-33.8,98.9c24.4,6.6,47.9-12.9,57.1-61.1l15.7-105.8c4.7-31.2,27-47.9,57.8-49.5l10.2-0.3"/>
			</g>
		</g>
	</g>
</g>
<circle display="none" fill="#3A3839" cx="205.5" cy="639.2" r="59.6"/>
<circle display="none" fill="none" stroke="#5B595B" stroke-width="0.3785" stroke-miterlimit="10" cx="205.5" cy="639.2" r="64"/>
<rect x="147" y="575.6" fill="#353535" width="100" height="140.6"/>
<g>
	<g>
		<path fill="#E0E0E0" d="M222.1,633.1l-5.7,29.8c-1.7,11.2-11.5,22.9-21.9,27.4c-17.4,7.7-34.9-0.2-34.9-19.1
			c0-7.7,7.6-18.8,19.2-18.8c19.9,0,17.2,17.1,17.1,18.2c-0.9,5.5-5.7,9.6-12.5,9.6c-4.9,0-9.5-6.1-8-11.4c4.1-0.1,8.5,0.5,11.7-3.3
			c0,0,5.6-14-9.6-12.9c-9.5,0.7-18,11.4-17,21.1c1.3,12.5,11,19.3,21.3,19c10.8-0.4,18.1-12.6,20.4-27.6l4.5-29.5
			c1.7-11.4,6.1-25.3,15.5-26.9l5.3-0.1"/>
	</g>
	<g>
		<path fill="#E0E0E0" d="M223.5,611.5L223.5,611.5c-10.8-0.1-20.2-9.1-31-9.1c-5.4,0-9.2,2.7-9.2,7.3c0,4.1,3,5.5,5.7,5.5
			c2.3,0,4.8-1.1,6.6-3.4c10.1,4.6,3.5,17.3-6.6,17.3c-6.4,0-12.8-4.9-12.8-12.5c0-8,6.7-14.4,16-14.4c11,0,21.5,8.6,31.8,8.6"/>
	</g>
	<g>
		<path fill="#E0E0E0" d="M195.4,662.6c2.1,7.9,0.6,15.3-8.1,17.9c-9.8,2.9-19.6-8.2-11.1-15.9c-0.4,0.4,4,3.1,7.4,1.2
			c2.5-1.4,4.6-2.7,4.6-6.9"/>
	</g>
	<g>
		<path fill="#E0E0E0" d="M221.6,616.2L221.6,616.2c3.6,0.1,6.8,3.3,10.4,3.4c1.8,0.1,3.1-0.8,3.2-2.4c0-1.4-1-1.9-1.9-1.9
			c-0.8,0-1.6,0.3-2.3,1.1c-3.4-1.6-1-5.9,2.4-5.8c2.2,0.1,4.3,1.8,4.2,4.4c-0.1,2.7-2.4,4.8-5.6,4.7c-3.7-0.1-7.2-3.2-10.7-3.3"/>
	</g>
</g>
<g id="Layer_5" display="none">
	
		<rect x="98.1" y="507.3" transform="matrix(-0.7071 0.7071 -0.7071 -0.7071 875.2125 941.2109)" display="inline" fill="#353535" width="289.1" height="289.1"/>
	<g display="inline">
		<path fill="#E0E0E0" d="M289.9,840.5c0,0-92.6,29.9-92.7,29.9c-34.3,12.3-82.2,2.8-111.2-19.5C37.5,813.5,32.9,752,86,723
			c21.5-11.8,64.8-7.8,82.8,25.2c30.7,56.2-21.6,74.9-25.2,76.2c-16.9,6-35.8-1.2-46.4-20.5c-7.6-13.9,2.5-36.3,19.8-40.1
			c6.6,11.6,11.6,24.7,27.4,28c0,0,48.2-5.8,21.6-46.9c-16.7-25.8-59.9-33.4-85.6-15.5c-33.2,23-37.6,60.8-20.6,89.4
			c17.7,29.9,63.5,31.7,109.2,14.9l90.2-32.8c34.9-12.7,80.8-21.7,99.9,2.1l8.3,14.7"/>
	</g>
	<g display="inline">
		<path fill="#E0E0E0" d="M339.7,796.4c11.4,17.5,37.6,25.7,49.8,44.3c10.3,15.9,7,34.1-6.7,43c-12.9,8.4-28.2,2.9-35.3-7.9
			c-11.2-17.2,3.1-42.4,22.1-30.3c-2,5.7-1.2,11,1.4,15c3,4.6,8.7,8.2,15.6,3.7c7.8-5.1,8.2-14.5,2.2-23.6
			c-11.9-18.2-37.6-24.2-49.6-42.6l-0.1,0.1"/>
	</g>
	<rect x="68.4" y="792.5" display="inline" fill="none" width="348.6" height="31.8"/>
	
		<text transform="matrix(1 0 0 1 68.3921 816.5037)" display="inline" fill="#A09F9F" font-family="'KeplerStd-ScnDisp'" font-size="35px" letter-spacing="14">JENNY SLATER</text>
	<rect x="163.8" y="837.9" display="inline" fill="none" width="157.7" height="21.8"/>
	
		<text transform="matrix(1 0 0 1 163.8319 853.2566)" display="inline" fill="#7B7879" font-family="'TrumpGothicPro'" font-size="20px" letter-spacing="5">graphic designer</text>
</g>
<g id="Layer_6" display="none">
	<rect x="52.9" y="549.1" display="inline" fill="#353535" width="269.1" height="323.5"/>
	<rect x="330.1" y="836.1" display="inline" fill="#353535" width="21.3" height="21.9"/>
	<rect x="355.9" y="825.1" display="inline" fill="#353535" width="21.3" height="21.9"/>
	<rect x="383" y="847" display="inline" fill="#353535" width="10.6" height="11"/>
	<rect x="282.6" y="520.7" display="inline" fill="#353535" width="21.3" height="21.9"/>
	<rect x="255.4" y="503.7" display="inline" fill="#353535" width="21.3" height="21.9"/>
	<rect x="314.4" y="515.9" display="inline" fill="#353535" width="15.3" height="15.8"/>
	<rect x="335.6" y="531.7" display="inline" fill="#353535" width="10.6" height="11"/>
	<g display="inline">
		<g>
			<path fill="#E0E0E0" d="M308.7,617.3l-17.2,90.6c-5.3,34.1-35,69.6-66.7,83.5c-53.1,23.3-106.3-0.7-106.3-58
				c0-23.3,23-57.3,58.5-57.3c60.6,0,52.4,52,51.9,55.5c-2.7,16.7-17.3,29.2-38.1,29.2c-15,0-29-18.6-24.3-34.7
				c12.6-0.3,25.8,1.6,35.7-10.1c0,0,17.1-42.7-29.2-39.2c-29,2.2-54.9,34.6-51.8,64.1c4.1,38,33.5,58.8,64.9,57.7
				c32.9-1.2,55.1-38.4,62-83.9l13.7-89.8c5.3-34.8,18.7-77,47.1-82l16-0.3"/>
		</g>
		<g>
			<path fill="#E0E0E0" d="M312.8,551.6v-0.3c-32.9,0-61.6-27.5-94.3-27.5c-16.3,0-27.9,8.3-27.9,22.2c0,12.4,9.2,16.6,17.4,16.6
				c7.1,0,14.5-3.4,20-10.5c30.8,14,10.8,52.7-20,52.7c-19.5,0-39-14.8-39-37.9c0-24.5,20.3-43.7,48.7-43.7
				c33.5,0,65.3,26.3,96.7,26.3"/>
		</g>
		<g>
			<path fill="#E0E0E0" d="M227.4,707.2c6.4,23.9,1.7,46.6-24.7,54.5c-29.7,8.9-59.6-24.9-33.8-48.4c-1.2,1.1,12.3,9.5,22.4,3.7
				c7.5-4.3,13.9-8.2,13.9-21.1"/>
		</g>
		<g>
			<path fill="#E0E0E0" d="M307,566L307,566c11.1,0.4,20.6,10,31.7,10.4c5.5,0.2,9.5-2.5,9.7-7.2c0.1-4.2-3-5.7-5.7-5.8
				c-2.4-0.1-4.9,1-6.9,3.4c-10.3-5-3.1-18,7.3-17.6c6.6,0.2,13.1,5.4,12.8,13.3c-0.3,8.3-7.3,14.6-17,14.3
				c-11.3-0.3-21.9-9.6-32.5-9.9"/>
		</g>
	</g>
	<rect x="55.7" y="861.9" display="inline" fill="none" width="348.6" height="31.8"/>
	
		<text transform="matrix(1 0 0 1 55.7065 885.8809)" display="inline" fill="#A09F9F" font-family="'KeplerStd-ScnDisp'" font-size="35px" letter-spacing="14">JENNY SLATER</text>
	<rect x="245" y="898.7" display="inline" fill="none" width="157.7" height="21.8"/>
	
		<text transform="matrix(1 0 0 1 244.9854 914.0391)" display="inline" fill="#7B7879" font-family="'TrumpGothicPro'" font-size="20px" letter-spacing="5">graphic designer</text>
</g>
<g id="Layer_7" display="none">
	
		<rect x="71" y="533.9" transform="matrix(-0.6308 -0.7759 0.7759 -0.6308 -238.1673 1272.3654)" display="inline" fill="#353535" width="225.3" height="317.9"/>
	<g display="inline">
		<g>
			<path fill="#FFFFFF" d="M315.7,623.6l-17.2,90.6c-5.3,34.1-35,69.6-66.7,83.5c-53.1,23.3-106.3-0.7-106.3-58
				c0-23.3,23-57.3,58.5-57.3c60.6,0,52.4,52,51.9,55.5c-2.7,16.7-17.3,29.2-38.1,29.2c-15,0-29-18.6-24.3-34.7
				c12.6-0.3,25.8,1.6,35.7-10.1c0,0,17.1-42.7-29.2-39.2c-29,2.2-54.9,34.6-51.8,64.1c4.1,38,33.5,58.8,64.9,57.7
				c32.9-1.2,55.1-38.4,62-83.9l13.7-89.8c5.3-34.8,18.7-77,47.1-82l16-0.3"/>
		</g>
		<g>
			<path fill="#FFFFFF" d="M319.8,557.9v-0.3c-32.9,0-61.6-27.5-94.3-27.5c-16.3,0-27.9,8.3-27.9,22.2c0,12.4,9.2,16.6,17.4,16.6
				c7.1,0,14.5-3.4,20-10.5c30.8,14,10.8,52.7-20,52.7c-19.5,0-39-14.8-39-37.9c0-24.5,20.3-43.7,48.7-43.7
				c33.5,0,65.3,26.3,96.7,26.3"/>
		</g>
		<g>
			<path fill="#FFFFFF" d="M234.4,713.5c6.4,23.9,1.7,46.6-24.7,54.5c-29.7,8.9-59.6-24.9-33.8-48.4c-1.2,1.1,12.3,9.5,22.4,3.7
				c7.5-4.3,13.9-8.2,13.9-21.1"/>
		</g>
		<g>
			<path fill="#FFFFFF" d="M314,572.3L314,572.3c11.1,0.4,20.6,10,31.7,10.4c5.5,0.2,9.5-2.5,9.7-7.2c0.1-4.2-3-5.7-5.7-5.8
				c-2.4-0.1-4.9,1-6.9,3.4c-10.3-5-3.1-18,7.3-17.6c6.6,0.2,13.1,5.4,12.8,13.3c-0.3,8.3-7.3,14.6-17,14.3
				c-11.3-0.3-21.9-9.6-32.5-9.9"/>
		</g>
	</g>
	
		<rect x="85.7" y="766.3" transform="matrix(-0.7729 0.6345 -0.6345 -0.7729 957.2202 1221.7928)" display="inline" fill="none" width="348.6" height="31.8"/>
	
		<text transform="matrix(0.7729 -0.6345 0.6345 0.7729 130.3213 899.038)" display="inline" fill="#A09F9F" font-family="'KeplerStd-ScnDisp'" font-size="35px" letter-spacing="14">JENNY SLATER</text>
	
		<rect x="259.3" y="737.4" transform="matrix(-0.7748 0.6322 -0.6322 -0.7748 1073.2047 1114.2455)" display="inline" fill="none" width="157.7" height="21.8"/>
	
		<text transform="matrix(0.7747 -0.6322 0.6322 0.7748 279.8435 801.5862)" display="inline" fill="#7B7879" font-family="'TrumpGothicPro'" font-size="20.0015px" letter-spacing="5">graphic designer</text>
</g>
<g id="Layer_8" display="none">
</g>
</svg>
