<?xml version="1.0" encoding="utf-8"?>
<!-- Generator: Adobe Illustrator 19.1.0, SVG Export Plug-In . SVG Version: 6.00 Build 0)  -->
<!DOCTYPE svg PUBLIC "-//W3C//DTD SVG 1.1//EN" "http://www.w3.org/Graphics/SVG/1.1/DTD/svg11.dtd">
<svg version="1.1" id="Layer_1" xmlns="http://www.w3.org/2000/svg" xmlns:xlink="http://www.w3.org/1999/xlink" x="0px" y="0px"
	 viewBox="0 0 288 288" enable-background="new 0 0 288 288" xml:space="preserve">
<path fill="#442418" stroke="#F5B140" stroke-width="5.7407" stroke-miterlimit="10" d="M89.6,230.9l-16-38.4c0,0,50.8-18.8,148.7,0
	c-9,24.3-13.5,38.4-13.5,38.4s-34.9-1.8-59.1,15.6C129.4,230.9,89.6,230.9,89.6,230.9z"/>
<rect x="112.4" y="205.2" fill="none" width="71.9" height="20.7"/>
<text transform="matrix(1 0 0 1 112.4161 220.1788)" fill="#FFFFFF" font-family="'BebasNeueBold'" font-size="21.4111px" letter-spacing="4">COFFEE</text>
<polygon fill="#FFFFFF" stroke="#442418" stroke-width="3.9782" stroke-miterlimit="10" points="175.4,102.6 185.4,175.4 
	226.6,175.4 234.5,102.6 "/>
<polygon fill="#F5B140" stroke="#442418" stroke-width="2.9431" stroke-miterlimit="10" points="171.8,103.6 237.3,103.6 
	235.9,94.4 174.2,94.4 "/>
<path fill="#FFFFFF" stroke="#442418" stroke-width="3.9782" stroke-miterlimit="10" d="M176.9,94.4l1.2-6.1c0,0,26.2-5,53.8,0
	c1.4,6.1,1.4,6.1,1.4,6.1H176.9z"/>
<rect x="190.8" y="113.7" fill="#F5B140" stroke="#442418" stroke-width="1.4482" stroke-miterlimit="10" width="4.6" height="9.9"/>
<rect x="190.8" y="138.8" fill="#F5B140" stroke="#442418" stroke-width="1.4482" stroke-miterlimit="10" width="4.6" height="9.9"/>
<rect x="214.7" y="138.8" fill="#F5B140" stroke="#442418" stroke-width="1.4482" stroke-miterlimit="10" width="4.6" height="9.9"/>
<rect x="214.7" y="113.7" fill="#F5B140" stroke="#442418" stroke-width="1.4482" stroke-miterlimit="10" width="4.6" height="9.9"/>
<g>
	
		<line fill="#FFFFFF" stroke="#442418" stroke-width="0.3737" stroke-miterlimit="10" x1="226.1" y1="107.8" x2="232.2" y2="108.5"/>
	
		<line fill="#FFFFFF" stroke="#442418" stroke-width="0.3737" stroke-miterlimit="10" x1="225.7" y1="111.7" x2="231.8" y2="112.4"/>
	<line fill="#FFFFFF" stroke="#442418" stroke-width="0.3737" stroke-miterlimit="10" x1="225.3" y1="115.3" x2="231.4" y2="116"/>
	<g>
		<line fill="#FFFFFF" stroke="#442418" stroke-width="0.3737" stroke-miterlimit="10" x1="224.9" y1="119.1" x2="231" y2="119.8"/>
		
			<line fill="#FFFFFF" stroke="#442418" stroke-width="0.3737" stroke-miterlimit="10" x1="224.5" y1="122.5" x2="230.6" y2="123.2"/>
		
			<line fill="#FFFFFF" stroke="#442418" stroke-width="0.3737" stroke-miterlimit="10" x1="224.1" y1="126.4" x2="230.2" y2="127.1"/>
		<line fill="#FFFFFF" stroke="#442418" stroke-width="0.3737" stroke-miterlimit="10" x1="223.8" y1="130" x2="229.8" y2="130.7"/>
	</g>
	<g>
		
			<line fill="#FFFFFF" stroke="#442418" stroke-width="0.3737" stroke-miterlimit="10" x1="223.4" y1="133.7" x2="229.4" y2="134.4"/>
		<line fill="#FFFFFF" stroke="#442418" stroke-width="0.3737" stroke-miterlimit="10" x1="223" y1="137.1" x2="229.1" y2="137.8"/>
		<line fill="#FFFFFF" stroke="#442418" stroke-width="0.3737" stroke-miterlimit="10" x1="222.6" y1="141" x2="228.7" y2="141.7"/>
		
			<line fill="#FFFFFF" stroke="#442418" stroke-width="0.3737" stroke-miterlimit="10" x1="222.2" y1="144.6" x2="228.3" y2="145.3"/>
	</g>
	<g>
		
			<line fill="#FFFFFF" stroke="#442418" stroke-width="0.3737" stroke-miterlimit="10" x1="221.9" y1="147.8" x2="227.9" y2="148.5"/>
		
			<line fill="#FFFFFF" stroke="#442418" stroke-width="0.3737" stroke-miterlimit="10" x1="221.5" y1="151.2" x2="227.6" y2="151.9"/>
		
			<line fill="#FFFFFF" stroke="#442418" stroke-width="0.3737" stroke-miterlimit="10" x1="221.1" y1="155.1" x2="227.2" y2="155.8"/>
		
			<line fill="#FFFFFF" stroke="#442418" stroke-width="0.3737" stroke-miterlimit="10" x1="220.7" y1="158.7" x2="226.8" y2="159.4"/>
	</g>
	
		<line fill="#FFFFFF" stroke="#442418" stroke-width="0.3737" stroke-miterlimit="10" x1="220.3" y1="162.3" x2="226.4" y2="162.9"/>
	<line fill="#FFFFFF" stroke="#442418" stroke-width="0.3737" stroke-miterlimit="10" x1="219.9" y1="165.7" x2="226" y2="166.3"/>
</g>
<polygon fill="#FFFFFF" stroke="#442418" stroke-width="3.9782" stroke-miterlimit="10" points="64.4,100.6 74.3,173.3 115.6,173.3 
	123.4,100.6 "/>
<polygon fill="#F5B140" stroke="#442418" stroke-width="2.9431" stroke-miterlimit="10" points="60.8,101.6 126.2,101.6 124.8,92.4 
	63.2,92.4 "/>
<path fill="#FFFFFF" stroke="#442418" stroke-width="3.9782" stroke-miterlimit="10" d="M65.8,92.4l1.2-6.1c0,0,26.2-5,53.8,0
	c1.4,6.1,1.4,6.1,1.4,6.1H65.8z"/>
<rect x="79.7" y="111.7" fill="#F5B140" stroke="#442418" stroke-width="1.4482" stroke-miterlimit="10" width="4.6" height="9.9"/>
<rect x="79.7" y="136.8" fill="#F5B140" stroke="#442418" stroke-width="1.4482" stroke-miterlimit="10" width="4.6" height="9.9"/>
<rect x="103.7" y="136.8" fill="#F5B140" stroke="#442418" stroke-width="1.4482" stroke-miterlimit="10" width="4.6" height="9.9"/>
<rect x="103.7" y="111.7" fill="#F5B140" stroke="#442418" stroke-width="1.4482" stroke-miterlimit="10" width="4.6" height="9.9"/>
<g>
	<g>
		<line fill="#FFFFFF" stroke="#442418" stroke-width="0.3737" stroke-miterlimit="10" x1="75.1" y1="166.4" x2="80.3" y2="165.7"/>
		<line fill="#FFFFFF" stroke="#442418" stroke-width="0.3737" stroke-miterlimit="10" x1="74.6" y1="163" x2="79.9" y2="162.3"/>
		<line fill="#FFFFFF" stroke="#442418" stroke-width="0.3737" stroke-miterlimit="10" x1="74.1" y1="159.1" x2="79.4" y2="158.4"/>
		<line fill="#FFFFFF" stroke="#442418" stroke-width="0.3737" stroke-miterlimit="10" x1="73.7" y1="155.5" x2="78.9" y2="154.8"/>
	</g>
	<g>
		<line fill="#FFFFFF" stroke="#442418" stroke-width="0.3737" stroke-miterlimit="10" x1="73.3" y1="152.3" x2="78.5" y2="151.6"/>
		<line fill="#FFFFFF" stroke="#442418" stroke-width="0.3737" stroke-miterlimit="10" x1="72.8" y1="148.9" x2="78.1" y2="148.2"/>
		<line fill="#FFFFFF" stroke="#442418" stroke-width="0.3737" stroke-miterlimit="10" x1="72.3" y1="145" x2="77.6" y2="144.4"/>
		<line fill="#FFFFFF" stroke="#442418" stroke-width="0.3737" stroke-miterlimit="10" x1="71.9" y1="141.4" x2="77.1" y2="140.8"/>
	</g>
	<g>
		<line fill="#FFFFFF" stroke="#442418" stroke-width="0.3737" stroke-miterlimit="10" x1="71.4" y1="137.9" x2="76.7" y2="137.2"/>
		<line fill="#FFFFFF" stroke="#442418" stroke-width="0.3737" stroke-miterlimit="10" x1="71" y1="134.5" x2="76.2" y2="133.8"/>
		<line fill="#FFFFFF" stroke="#442418" stroke-width="0.3737" stroke-miterlimit="10" x1="70.5" y1="130.6" x2="75.7" y2="130"/>
		<line fill="#FFFFFF" stroke="#442418" stroke-width="0.3737" stroke-miterlimit="10" x1="70" y1="127" x2="75.3" y2="126.3"/>
	</g>
	<g>
		<line fill="#FFFFFF" stroke="#442418" stroke-width="0.3737" stroke-miterlimit="10" x1="69.6" y1="123.9" x2="74.9" y2="123.3"/>
		<line fill="#FFFFFF" stroke="#442418" stroke-width="0.3737" stroke-miterlimit="10" x1="69.2" y1="120.5" x2="74.4" y2="119.9"/>
		<line fill="#FFFFFF" stroke="#442418" stroke-width="0.3737" stroke-miterlimit="10" x1="68.7" y1="116.7" x2="74" y2="116"/>
		<line fill="#FFFFFF" stroke="#442418" stroke-width="0.3737" stroke-miterlimit="10" x1="68.3" y1="113.1" x2="73.5" y2="112.4"/>
	</g>
	<line fill="#FFFFFF" stroke="#442418" stroke-width="0.3737" stroke-miterlimit="10" x1="67.4" y1="109.7" x2="72.6" y2="109"/>
	<line fill="#FFFFFF" stroke="#442418" stroke-width="0.3737" stroke-miterlimit="10" x1="67" y1="106.3" x2="72.2" y2="105.6"/>
</g>
<polygon fill="#FFFFFF" stroke="#442418" stroke-width="3.9782" stroke-miterlimit="10" points="103.5,65.4 118.6,175.9 
	181.2,175.9 193.2,65.4 "/>
<polygon fill="#F5B140" stroke="#442418" stroke-width="2.9431" stroke-miterlimit="10" points="98,66.9 197.5,66.9 195.3,53 
	101.7,53 "/>
<path fill="#FFFFFF" stroke="#442418" stroke-width="3.9782" stroke-miterlimit="10" d="M105.7,53l1.8-9.3c0,0,39.8-7.6,81.7,0
	c2.1,9.3,2.1,9.3,2.1,9.3H105.7z"/>
<rect x="126.8" y="82.2" fill="#F5B140" stroke="#442418" stroke-width="1.4482" stroke-miterlimit="10" width="7" height="15.1"/>
<rect x="126.8" y="120.4" fill="#F5B140" stroke="#442418" stroke-width="1.4482" stroke-miterlimit="10" width="7" height="15.1"/>
<rect x="163.2" y="120.4" fill="#F5B140" stroke="#442418" stroke-width="1.4482" stroke-miterlimit="10" width="7" height="15.1"/>
<rect x="163.2" y="82.2" fill="#F5B140" stroke="#442418" stroke-width="1.4482" stroke-miterlimit="10" width="7" height="15.1"/>
<g>
	<g>
		<line fill="#FFFFFF" stroke="#442418" stroke-width="0.3737" stroke-miterlimit="10" x1="181.3" y1="68.5" x2="189.7" y2="69.1"/>
		<line fill="#FFFFFF" stroke="#442418" stroke-width="0.3737" stroke-miterlimit="10" x1="181" y1="71.9" x2="189.5" y2="72.5"/>
		<line fill="#FFFFFF" stroke="#442418" stroke-width="0.3737" stroke-miterlimit="10" x1="180.8" y1="75.8" x2="189.2" y2="76.4"/>
		<line fill="#FFFFFF" stroke="#442418" stroke-width="0.3737" stroke-miterlimit="10" x1="180.5" y1="79.5" x2="189" y2="80"/>
	</g>
	<g>
		<line fill="#FFFFFF" stroke="#442418" stroke-width="0.3737" stroke-miterlimit="10" x1="180.2" y1="83.3" x2="188.7" y2="83.9"/>
		<line fill="#FFFFFF" stroke="#442418" stroke-width="0.3737" stroke-miterlimit="10" x1="180" y1="86.7" x2="188.5" y2="87.3"/>
		<line fill="#FFFFFF" stroke="#442418" stroke-width="0.3737" stroke-miterlimit="10" x1="179.7" y1="90.6" x2="188.2" y2="91.2"/>
		<line fill="#FFFFFF" stroke="#442418" stroke-width="0.3737" stroke-miterlimit="10" x1="179.5" y1="94.2" x2="188" y2="94.8"/>
	</g>
	<g>
		<line fill="#FFFFFF" stroke="#442418" stroke-width="0.3737" stroke-miterlimit="10" x1="178.6" y1="97.9" x2="187.1" y2="98.5"/>
		
			<line fill="#FFFFFF" stroke="#442418" stroke-width="0.3737" stroke-miterlimit="10" x1="178.4" y1="101.3" x2="186.8" y2="101.9"/>
		
			<line fill="#FFFFFF" stroke="#442418" stroke-width="0.3737" stroke-miterlimit="10" x1="178.1" y1="105.2" x2="186.6" y2="105.8"/>
		
			<line fill="#FFFFFF" stroke="#442418" stroke-width="0.3737" stroke-miterlimit="10" x1="177.8" y1="108.9" x2="186.3" y2="109.5"/>
	</g>
	<g>
		<line fill="#FFFFFF" stroke="#442418" stroke-width="0.3737" stroke-miterlimit="10" x1="177" y1="112.1" x2="185.4" y2="112.7"/>
		
			<line fill="#FFFFFF" stroke="#442418" stroke-width="0.3737" stroke-miterlimit="10" x1="176.7" y1="115.5" x2="185.2" y2="116.1"/>
		<line fill="#FFFFFF" stroke="#442418" stroke-width="0.3737" stroke-miterlimit="10" x1="176.5" y1="119.4" x2="184.9" y2="120"/>
		<line fill="#FFFFFF" stroke="#442418" stroke-width="0.3737" stroke-miterlimit="10" x1="176.2" y1="123" x2="184.7" y2="123.6"/>
	</g>
	<g>
		
			<line fill="#FFFFFF" stroke="#442418" stroke-width="0.3737" stroke-miterlimit="10" x1="175.3" y1="126.6" x2="183.8" y2="127.2"/>
		<line fill="#FFFFFF" stroke="#442418" stroke-width="0.3737" stroke-miterlimit="10" x1="175.1" y1="130" x2="183.6" y2="130.6"/>
		
			<line fill="#FFFFFF" stroke="#442418" stroke-width="0.3737" stroke-miterlimit="10" x1="174.8" y1="133.9" x2="183.3" y2="134.5"/>
		<line fill="#FFFFFF" stroke="#442418" stroke-width="0.3737" stroke-miterlimit="10" x1="174.6" y1="137.5" x2="183" y2="138.1"/>
	</g>
	<g>
		
			<line fill="#FFFFFF" stroke="#442418" stroke-width="0.3737" stroke-miterlimit="10" x1="174.4" y1="140.6" x2="182.8" y2="141.2"/>
		<line fill="#FFFFFF" stroke="#442418" stroke-width="0.3737" stroke-miterlimit="10" x1="174.1" y1="144" x2="182.6" y2="144.6"/>
		
			<line fill="#FFFFFF" stroke="#442418" stroke-width="0.3737" stroke-miterlimit="10" x1="173.8" y1="147.9" x2="182.3" y2="148.5"/>
		
			<line fill="#FFFFFF" stroke="#442418" stroke-width="0.3737" stroke-miterlimit="10" x1="173.6" y1="151.6" x2="182.1" y2="152.1"/>
	</g>
	<line fill="#FFFFFF" stroke="#442418" stroke-width="0.3737" stroke-miterlimit="10" x1="172.7" y1="155" x2="181.2" y2="155.6"/>
	<line fill="#FFFFFF" stroke="#442418" stroke-width="0.3737" stroke-miterlimit="10" x1="172.4" y1="158.4" x2="180.9" y2="159"/>
</g>
<line fill="none" stroke="#F5B141" stroke-width="0.8375" stroke-miterlimit="10" x1="174.1" y1="162.3" x2="182.6" y2="162.9"/>
<g>
	<g>
		
			<line fill="#FFFFFF" stroke="#442418" stroke-width="0.3737" stroke-miterlimit="10" x1="118.4" y1="163.8" x2="126.8" y2="162.7"/>
		
			<line fill="#FFFFFF" stroke="#442418" stroke-width="0.3737" stroke-miterlimit="10" x1="117.9" y1="160.4" x2="126.4" y2="159.3"/>
		
			<line fill="#FFFFFF" stroke="#442418" stroke-width="0.3737" stroke-miterlimit="10" x1="117.4" y1="156.5" x2="125.9" y2="155.5"/>
		<line fill="#FFFFFF" stroke="#442418" stroke-width="0.3737" stroke-miterlimit="10" x1="117" y1="152.9" x2="125.4" y2="151.9"/>
	</g>
	<g>
		
			<line fill="#FFFFFF" stroke="#442418" stroke-width="0.3737" stroke-miterlimit="10" x1="116.5" y1="149.1" x2="124.9" y2="148.1"/>
		
			<line fill="#FFFFFF" stroke="#442418" stroke-width="0.3737" stroke-miterlimit="10" x1="116.1" y1="145.7" x2="124.5" y2="144.7"/>
		<line fill="#FFFFFF" stroke="#442418" stroke-width="0.3737" stroke-miterlimit="10" x1="115.6" y1="141.9" x2="124" y2="140.8"/>
		
			<line fill="#FFFFFF" stroke="#442418" stroke-width="0.3737" stroke-miterlimit="10" x1="115.1" y1="138.3" x2="123.5" y2="137.2"/>
	</g>
	<g>
		
			<line fill="#FFFFFF" stroke="#442418" stroke-width="0.3737" stroke-miterlimit="10" x1="114.6" y1="134.6" x2="123.1" y2="133.5"/>
		
			<line fill="#FFFFFF" stroke="#442418" stroke-width="0.3737" stroke-miterlimit="10" x1="114.2" y1="131.2" x2="122.6" y2="130.1"/>
		
			<line fill="#FFFFFF" stroke="#442418" stroke-width="0.3737" stroke-miterlimit="10" x1="113.7" y1="127.3" x2="122.1" y2="126.2"/>
		
			<line fill="#FFFFFF" stroke="#442418" stroke-width="0.3737" stroke-miterlimit="10" x1="113.3" y1="123.7" x2="121.7" y2="122.6"/>
	</g>
	<g>
		
			<line fill="#FFFFFF" stroke="#442418" stroke-width="0.3737" stroke-miterlimit="10" x1="112.8" y1="120.5" x2="121.3" y2="119.4"/>
		<line fill="#FFFFFF" stroke="#442418" stroke-width="0.3737" stroke-miterlimit="10" x1="112.4" y1="117.1" x2="120.8" y2="116"/>
		
			<line fill="#FFFFFF" stroke="#442418" stroke-width="0.3737" stroke-miterlimit="10" x1="111.9" y1="113.2" x2="120.3" y2="112.2"/>
		
			<line fill="#FFFFFF" stroke="#442418" stroke-width="0.3737" stroke-miterlimit="10" x1="111.5" y1="109.6" x2="119.9" y2="108.5"/>
	</g>
	<g>
		<line fill="#FFFFFF" stroke="#442418" stroke-width="0.3737" stroke-miterlimit="10" x1="111" y1="106.1" x2="119.4" y2="105"/>
		<line fill="#FFFFFF" stroke="#442418" stroke-width="0.3737" stroke-miterlimit="10" x1="110.6" y1="102.7" x2="119" y2="101.6"/>
		<line fill="#FFFFFF" stroke="#442418" stroke-width="0.3737" stroke-miterlimit="10" x1="110.1" y1="98.8" x2="118.5" y2="97.7"/>
		<line fill="#FFFFFF" stroke="#442418" stroke-width="0.3737" stroke-miterlimit="10" x1="109.6" y1="95.2" x2="118.1" y2="94.1"/>
	</g>
	<g>
		<line fill="#FFFFFF" stroke="#442418" stroke-width="0.3737" stroke-miterlimit="10" x1="109.2" y1="92.1" x2="117.7" y2="91"/>
		<line fill="#FFFFFF" stroke="#442418" stroke-width="0.3737" stroke-miterlimit="10" x1="108.8" y1="88.7" x2="117.2" y2="87.6"/>
		<line fill="#FFFFFF" stroke="#442418" stroke-width="0.3737" stroke-miterlimit="10" x1="108.3" y1="84.9" x2="116.7" y2="83.8"/>
		<line fill="#FFFFFF" stroke="#442418" stroke-width="0.3737" stroke-miterlimit="10" x1="107.8" y1="81.2" x2="116.3" y2="80.2"/>
	</g>
	<line fill="#FFFFFF" stroke="#442418" stroke-width="0.3737" stroke-miterlimit="10" x1="106.7" y1="77.9" x2="115.2" y2="76.8"/>
	<line fill="#FFFFFF" stroke="#442418" stroke-width="0.3737" stroke-miterlimit="10" x1="106.3" y1="74.5" x2="114.7" y2="73.4"/>
	<line fill="#FFFFFF" stroke="#442418" stroke-width="0.3737" stroke-miterlimit="10" x1="105.8" y1="70.6" x2="114.2" y2="69.6"/>
</g>
<path fill="none" stroke="#F9F9FA" stroke-width="0.729" stroke-miterlimit="10" d="M94.1,194.4l6.2,28.6c0,0,35,4,49.5,11.9
	c15.2-7.2,40.3-11.9,48.5-11.9c3.3-10.6,8.2-29,8.2-29"/>
<g>
	<line fill="none" stroke="#FEFEFF" stroke-width="0.5234" stroke-miterlimit="10" x1="78.1" y1="202.2" x2="87.4" y2="200"/>
	<line fill="none" stroke="#FEFEFF" stroke-width="0.5234" stroke-miterlimit="10" x1="79" y1="205.9" x2="88.3" y2="203.7"/>
	<line fill="none" stroke="#FEFEFF" stroke-width="0.5234" stroke-miterlimit="10" x1="80" y1="210.2" x2="89.3" y2="208"/>
	<line fill="none" stroke="#FEFEFF" stroke-width="0.5234" stroke-miterlimit="10" x1="81" y1="214.2" x2="90.3" y2="212"/>
</g>
<g>
	<line fill="none" stroke="#FEFEFF" stroke-width="0.5234" stroke-miterlimit="10" x1="82" y1="218.4" x2="91.3" y2="216.2"/>
	<line fill="none" stroke="#FEFEFF" stroke-width="0.5234" stroke-miterlimit="10" x1="82.8" y1="222.1" x2="92.1" y2="219.9"/>
	<line fill="none" stroke="#FEFEFF" stroke-width="0.5234" stroke-miterlimit="10" x1="83.8" y1="226.4" x2="93.1" y2="224.2"/>
	<line fill="none" stroke="#FEFEFF" stroke-width="0.5234" stroke-miterlimit="10" x1="84.8" y1="230.4" x2="94.1" y2="228.2"/>
</g>
<g>
	<line fill="none" stroke="#FEFEFF" stroke-width="0.5234" stroke-miterlimit="10" x1="209.3" y1="200.9" x2="218.7" y2="202.9"/>
	<line fill="none" stroke="#FEFEFF" stroke-width="0.5234" stroke-miterlimit="10" x1="208.5" y1="204.6" x2="217.8" y2="206.7"/>
	<line fill="none" stroke="#FEFEFF" stroke-width="0.5234" stroke-miterlimit="10" x1="207.6" y1="208.9" x2="216.9" y2="210.9"/>
	<line fill="none" stroke="#FEFEFF" stroke-width="0.5234" stroke-miterlimit="10" x1="206.7" y1="212.9" x2="216" y2="214.9"/>
</g>
<g>
	<line fill="none" stroke="#FEFEFF" stroke-width="0.5234" stroke-miterlimit="10" x1="205.8" y1="217.1" x2="215.1" y2="219.2"/>
	<line fill="none" stroke="#FEFEFF" stroke-width="0.5234" stroke-miterlimit="10" x1="205" y1="220.9" x2="214.3" y2="222.9"/>
	<line fill="none" stroke="#FEFEFF" stroke-width="0.5234" stroke-miterlimit="10" x1="204" y1="225.2" x2="213.3" y2="227.2"/>
	<line fill="none" stroke="#FEFEFF" stroke-width="0.5234" stroke-miterlimit="10" x1="203.1" y1="229.2" x2="212.5" y2="231.2"/>
</g>
<g>
	<g>
		<g>
			<polygon fill="#FFFFFF" stroke="#442418" stroke-width="1.675" stroke-miterlimit="10" points="54.3,178 39.5,178 46.9,199.8 
				39.5,218.4 68.5,218.4 68.6,184.2 			"/>
			<polygon fill="#FFFFFF" stroke="#442418" stroke-width="1.675" stroke-miterlimit="10" points="68.5,172.9 54.3,172.9 
				54.3,209.3 71,209.3 73.7,172.9 			"/>
			<polygon fill="#FFFFFF" stroke="#442418" stroke-width="1.675" stroke-miterlimit="10" points="241.6,178.6 256.4,179 
				248.5,200.6 255.5,219.4 226.5,218.5 227.2,184.4 			"/>
			<polygon fill="#FFFFFF" stroke="#442418" stroke-width="1.675" stroke-miterlimit="10" points="227.5,173 241.7,173.4 
				240.9,209.8 224.2,209.4 222.4,172.9 			"/>
			<path fill="#FFFFFF" stroke="#442418" stroke-width="1.675" stroke-miterlimit="10" d="M69.1,167.1c0,0,74.2-18.7,155.7,1.3
				c-0.7,18.1,0,40.9,0,40.9s-74.6-23-153.8,0C66.8,180.8,69.1,167.1,69.1,167.1z"/>
		</g>
		<path id="SVGID_x5F_1_x5F_" fill="none" d="M82.8,193.2c0,0,61.8-15.2,131,1.7"/>
		<text>		<textPath  xlink:href="#SVGID_x5F_1_x5F_" startOffset="28.32%">
<tspan  fill="#442418" stroke="#442418" stroke-width="0.8375" stroke-miterlimit="10" font-family="'BebasNeueBold'" font-size="20.7624px" letter-spacing="240">MAI</tspan><tspan  fill="#442418" stroke="#442418" stroke-width="0.8375" stroke-miterlimit="10" font-family="'BebasNeueBold'" font-size="20.7624px" letter-spacing="-60">N </tspan><tspan  fill="#442418" stroke="#442418" stroke-width="0.8375" stroke-miterlimit="10" font-family="'BebasNeueBold'" font-size="20.7624px" letter-spacing="240">STREET</tspan>		</textPath>
</text>
	</g>
	<g>
		<g>
			<line fill="none" stroke="#F5B141" stroke-width="0.8375" stroke-miterlimit="10" x1="59.5" y1="176.6" x2="69.1" y2="176.6"/>
			<line fill="none" stroke="#F5B141" stroke-width="0.8375" stroke-miterlimit="10" x1="59.5" y1="180.5" x2="69.1" y2="180.4"/>
			<line fill="none" stroke="#F5B141" stroke-width="0.8375" stroke-miterlimit="10" x1="59.5" y1="184.9" x2="69.1" y2="184.8"/>
			<line fill="none" stroke="#F5B141" stroke-width="0.8375" stroke-miterlimit="10" x1="59.6" y1="189" x2="69.1" y2="188.9"/>
		</g>
		<g>
			<line fill="none" stroke="#F5B141" stroke-width="0.8375" stroke-miterlimit="10" x1="59.6" y1="193.3" x2="69.1" y2="193.2"/>
			<line fill="none" stroke="#F5B141" stroke-width="0.8375" stroke-miterlimit="10" x1="59.6" y1="197.1" x2="69.2" y2="197.1"/>
			<line fill="none" stroke="#F5B141" stroke-width="0.8375" stroke-miterlimit="10" x1="59.6" y1="201.5" x2="69.2" y2="201.5"/>
			<line fill="none" stroke="#F5B141" stroke-width="0.8375" stroke-miterlimit="10" x1="59.7" y1="205.6" x2="69.2" y2="205.5"/>
		</g>
	</g>
	<g>
		<g>
			<line fill="none" stroke="#F5B141" stroke-width="0.8375" stroke-miterlimit="10" x1="224.8" y1="177" x2="234.4" y2="176.9"/>
			<line fill="none" stroke="#F5B141" stroke-width="0.8375" stroke-miterlimit="10" x1="224.8" y1="180.8" x2="234.4" y2="180.8"/>
			<line fill="none" stroke="#F5B141" stroke-width="0.8375" stroke-miterlimit="10" x1="224.9" y1="185.2" x2="234.4" y2="185.1"/>
			<line fill="none" stroke="#F5B141" stroke-width="0.8375" stroke-miterlimit="10" x1="224.9" y1="189.3" x2="234.4" y2="189.2"/>
		</g>
		<g>
			<line fill="none" stroke="#F5B141" stroke-width="0.8375" stroke-miterlimit="10" x1="224.9" y1="193.6" x2="234.5" y2="193.5"/>
			<line fill="none" stroke="#F5B141" stroke-width="0.8375" stroke-miterlimit="10" x1="224.9" y1="197.4" x2="234.5" y2="197.4"/>
			<line fill="none" stroke="#F5B141" stroke-width="0.8375" stroke-miterlimit="10" x1="225" y1="201.8" x2="234.5" y2="201.8"/>
			<line fill="none" stroke="#F5B141" stroke-width="0.8375" stroke-miterlimit="10" x1="225" y1="205.9" x2="234.5" y2="205.9"/>
		</g>
	</g>
</g>
</svg>
