<?xml version="1.0" encoding="utf-8"?>
<!-- Generator: Adobe Illustrator 19.1.0, SVG Export Plug-In . SVG Version: 6.00 Build 0)  -->
<!DOCTYPE svg PUBLIC "-//W3C//DTD SVG 1.1//EN" "http://www.w3.org/Graphics/SVG/1.1/DTD/svg11.dtd">
<svg version="1.1" xmlns="http://www.w3.org/2000/svg" xmlns:xlink="http://www.w3.org/1999/xlink" x="0px" y="0px"
	 viewBox="0 0 576 627" enable-background="new 0 0 576 627" xml:space="preserve">
<g id="Box" display="none">
</g>
<g id="Layer_3" display="none">
</g>
<g id="Layer_6">
</g>
<g id="building">
</g>
<g id="Layer_7" display="none">
</g>
<g id="Layer_5" display="none">
</g>
<g id="type_x3F_">
</g>
<g id="Layer_8" display="none">
</g>
<g id="Layer_9">
	<path fill="#442418" stroke="#F5B140" stroke-width="8.8479" stroke-miterlimit="10" d="M202.1,452l-24.7-59.2c0,0,78.3-29,229.2,0
		c-13.8,37.4-20.7,59.2-20.7,59.2s-53.8-2.8-91.1,24C263.4,452,202.1,452,202.1,452z"/>
	<g>
		<path fill="#FFFFFF" d="M249.1,426.8v3.1c0,3.7-1.8,5.8-5.4,5.8s-5.4-2.1-5.4-5.8v-12c0-3.7,1.8-5.8,5.4-5.8s5.4,2.1,5.4,5.8v2.2
			h-3.4v-2.5c0-1.6-0.7-2.3-1.9-2.3s-1.9,0.6-1.9,2.3v12.5c0,1.7,0.7,2.2,1.9,2.2s1.9-0.6,1.9-2.2v-3.3H249.1z"/>
		<path fill="#FFFFFF" d="M258.3,417.9c0-3.7,1.9-5.8,5.5-5.8s5.5,2.1,5.5,5.8v12c0,3.7-1.9,5.8-5.5,5.8s-5.5-2.1-5.5-5.8V417.9z
			 M261.9,430.2c0,1.7,0.7,2.3,1.9,2.3s1.9-0.6,1.9-2.3v-12.5c0-1.6-0.7-2.3-1.9-2.3s-1.9,0.6-1.9,2.3V430.2z"/>
		<path fill="#FFFFFF" d="M282.5,422.6h4.7v3.3h-4.7v9.5h-3.6v-23.1h9.6v3.3h-6V422.6z"/>
		<path fill="#FFFFFF" d="M301.1,422.6h4.7v3.3h-4.7v9.5h-3.6v-23.1h9.6v3.3h-6V422.6z"/>
		<path fill="#FFFFFF" d="M319.8,422.1h5v3.3h-5v6.8h6.3v3.3h-9.9v-23.1h9.9v3.3h-6.3V422.1z"/>
		<path fill="#FFFFFF" d="M339.2,422.1h5v3.3h-5v6.8h6.3v3.3h-9.9v-23.1h9.9v3.3h-6.3V422.1z"/>
	</g>
	<polygon fill="#FFFFFF" stroke="#442418" stroke-width="6.1314" stroke-miterlimit="10" points="334.4,254.3 349.7,366.4 
		413.2,366.4 425.4,254.3 	"/>
	<polygon fill="#F5B140" stroke="#442418" stroke-width="4.536" stroke-miterlimit="10" points="328.8,255.8 429.7,255.8 
		427.5,241.7 332.5,241.7 	"/>
	<path fill="#FFFFFF" stroke="#442418" stroke-width="6.1314" stroke-miterlimit="10" d="M336.6,241.7l1.9-9.5c0,0,40.4-7.8,82.9,0
		c2.2,9.5,2.2,9.5,2.2,9.5H336.6z"/>
	<rect x="358" y="271.4" fill="#F5B140" stroke="#442418" stroke-width="2.232" stroke-miterlimit="10" width="7.1" height="15.3"/>
	<rect x="358" y="310.1" fill="#F5B140" stroke="#442418" stroke-width="2.232" stroke-miterlimit="10" width="7.1" height="15.3"/>
	
		<rect x="394.9" y="310.1" fill="#F5B140" stroke="#442418" stroke-width="2.232" stroke-miterlimit="10" width="7.1" height="15.3"/>
	
		<rect x="394.9" y="271.4" fill="#F5B140" stroke="#442418" stroke-width="2.232" stroke-miterlimit="10" width="7.1" height="15.3"/>
	<g>
		
			<line fill="#FFFFFF" stroke="#442418" stroke-width="0.576" stroke-miterlimit="10" x1="412.5" y1="262.3" x2="421.9" y2="263.3"/>
		
			<line fill="#FFFFFF" stroke="#442418" stroke-width="0.576" stroke-miterlimit="10" x1="411.9" y1="268.3" x2="421.2" y2="269.3"/>
		
			<line fill="#FFFFFF" stroke="#442418" stroke-width="0.576" stroke-miterlimit="10" x1="411.3" y1="273.9" x2="420.6" y2="274.9"/>
		<g>
			<line fill="#FFFFFF" stroke="#442418" stroke-width="0.576" stroke-miterlimit="10" x1="410.6" y1="279.7" x2="420" y2="280.7"/>
			<line fill="#FFFFFF" stroke="#442418" stroke-width="0.576" stroke-miterlimit="10" x1="410.1" y1="285" x2="419.5" y2="286"/>
			<line fill="#FFFFFF" stroke="#442418" stroke-width="0.576" stroke-miterlimit="10" x1="409.4" y1="291" x2="418.8" y2="292"/>
			
				<line fill="#FFFFFF" stroke="#442418" stroke-width="0.576" stroke-miterlimit="10" x1="408.9" y1="296.5" x2="418.2" y2="297.5"/>
		</g>
		<g>
			
				<line fill="#FFFFFF" stroke="#442418" stroke-width="0.576" stroke-miterlimit="10" x1="408.2" y1="302.2" x2="417.6" y2="303.2"/>
			
				<line fill="#FFFFFF" stroke="#442418" stroke-width="0.576" stroke-miterlimit="10" x1="407.7" y1="307.5" x2="417.1" y2="308.5"/>
			<line fill="#FFFFFF" stroke="#442418" stroke-width="0.576" stroke-miterlimit="10" x1="407" y1="313.5" x2="416.4" y2="314.5"/>
			<line fill="#FFFFFF" stroke="#442418" stroke-width="0.576" stroke-miterlimit="10" x1="406.5" y1="319" x2="415.8" y2="320"/>
		</g>
		<g>
			<line fill="#FFFFFF" stroke="#442418" stroke-width="0.576" stroke-miterlimit="10" x1="405.9" y1="324" x2="415.3" y2="325"/>
			
				<line fill="#FFFFFF" stroke="#442418" stroke-width="0.576" stroke-miterlimit="10" x1="405.4" y1="329.2" x2="414.7" y2="330.2"/>
			
				<line fill="#FFFFFF" stroke="#442418" stroke-width="0.576" stroke-miterlimit="10" x1="404.7" y1="335.2" x2="414.1" y2="336.2"/>
			
				<line fill="#FFFFFF" stroke="#442418" stroke-width="0.576" stroke-miterlimit="10" x1="404.1" y1="340.8" x2="413.5" y2="341.8"/>
		</g>
		
			<line fill="#FFFFFF" stroke="#442418" stroke-width="0.576" stroke-miterlimit="10" x1="403.6" y1="346.2" x2="412.9" y2="347.2"/>
		<line fill="#FFFFFF" stroke="#442418" stroke-width="0.576" stroke-miterlimit="10" x1="403" y1="351.5" x2="412.4" y2="352.5"/>
	</g>
	<polygon fill="#FFFFFF" stroke="#442418" stroke-width="6.1314" stroke-miterlimit="10" points="163.3,251.1 178.5,363.2 
		242.1,363.2 254.2,251.1 	"/>
	<polygon fill="#F5B140" stroke="#442418" stroke-width="4.536" stroke-miterlimit="10" points="157.7,252.7 258.6,252.7 
		256.4,238.5 161.4,238.5 	"/>
	<path fill="#FFFFFF" stroke="#442418" stroke-width="6.1314" stroke-miterlimit="10" d="M165.4,238.5l1.9-9.5c0,0,40.4-7.8,82.9,0
		c2.2,9.5,2.2,9.5,2.2,9.5H165.4z"/>
	
		<rect x="186.9" y="268.2" fill="#F5B140" stroke="#442418" stroke-width="2.232" stroke-miterlimit="10" width="7.1" height="15.3"/>
	<rect x="186.9" y="307" fill="#F5B140" stroke="#442418" stroke-width="2.232" stroke-miterlimit="10" width="7.1" height="15.3"/>
	<rect x="223.8" y="307" fill="#F5B140" stroke="#442418" stroke-width="2.232" stroke-miterlimit="10" width="7.1" height="15.3"/>
	
		<rect x="223.8" y="268.2" fill="#F5B140" stroke="#442418" stroke-width="2.232" stroke-miterlimit="10" width="7.1" height="15.3"/>
	<g>
		<g>
			
				<line fill="#FFFFFF" stroke="#442418" stroke-width="0.576" stroke-miterlimit="10" x1="179.7" y1="352.5" x2="187.8" y2="351.5"/>
			<line fill="#FFFFFF" stroke="#442418" stroke-width="0.576" stroke-miterlimit="10" x1="179" y1="347.3" x2="187.1" y2="346.3"/>
			
				<line fill="#FFFFFF" stroke="#442418" stroke-width="0.576" stroke-miterlimit="10" x1="178.2" y1="341.3" x2="186.3" y2="340.3"/>
			
				<line fill="#FFFFFF" stroke="#442418" stroke-width="0.576" stroke-miterlimit="10" x1="177.5" y1="335.8" x2="185.6" y2="334.7"/>
		</g>
		<g>
			<line fill="#FFFFFF" stroke="#442418" stroke-width="0.576" stroke-miterlimit="10" x1="176.9" y1="330.8" x2="185" y2="329.8"/>
			
				<line fill="#FFFFFF" stroke="#442418" stroke-width="0.576" stroke-miterlimit="10" x1="176.2" y1="325.6" x2="184.3" y2="324.6"/>
			
				<line fill="#FFFFFF" stroke="#442418" stroke-width="0.576" stroke-miterlimit="10" x1="175.5" y1="319.7" x2="183.6" y2="318.6"/>
			
				<line fill="#FFFFFF" stroke="#442418" stroke-width="0.576" stroke-miterlimit="10" x1="174.8" y1="314.1" x2="182.9" y2="313.1"/>
		</g>
		<g>
			
				<line fill="#FFFFFF" stroke="#442418" stroke-width="0.576" stroke-miterlimit="10" x1="174.1" y1="308.6" x2="182.2" y2="307.6"/>
			
				<line fill="#FFFFFF" stroke="#442418" stroke-width="0.576" stroke-miterlimit="10" x1="173.4" y1="303.4" x2="181.5" y2="302.4"/>
			
				<line fill="#FFFFFF" stroke="#442418" stroke-width="0.576" stroke-miterlimit="10" x1="172.6" y1="297.4" x2="180.7" y2="296.4"/>
			<line fill="#FFFFFF" stroke="#442418" stroke-width="0.576" stroke-miterlimit="10" x1="171.9" y1="291.9" x2="180" y2="290.9"/>
		</g>
		<g>
			
				<line fill="#FFFFFF" stroke="#442418" stroke-width="0.576" stroke-miterlimit="10" x1="171.3" y1="287.1" x2="179.4" y2="286.1"/>
			
				<line fill="#FFFFFF" stroke="#442418" stroke-width="0.576" stroke-miterlimit="10" x1="170.7" y1="281.9" x2="178.7" y2="280.8"/>
			<line fill="#FFFFFF" stroke="#442418" stroke-width="0.576" stroke-miterlimit="10" x1="169.9" y1="275.9" x2="178" y2="274.9"/>
			
				<line fill="#FFFFFF" stroke="#442418" stroke-width="0.576" stroke-miterlimit="10" x1="169.2" y1="270.4" x2="177.3" y2="269.3"/>
		</g>
		
			<line fill="#FFFFFF" stroke="#442418" stroke-width="0.576" stroke-miterlimit="10" x1="167.9" y1="265.1" x2="175.9" y2="264.1"/>
		
			<line fill="#FFFFFF" stroke="#442418" stroke-width="0.576" stroke-miterlimit="10" x1="167.2" y1="259.9" x2="175.3" y2="258.9"/>
	</g>
	<polygon fill="#FFFFFF" stroke="#442418" stroke-width="6.1314" stroke-miterlimit="10" points="223.6,196.9 246.8,367.2 
		343.3,367.2 361.7,196.9 	"/>
	<polygon fill="#F5B140" stroke="#442418" stroke-width="4.536" stroke-miterlimit="10" points="215.1,199.2 368.3,199.2 365,177.7 
		220.8,177.7 	"/>
	<path fill="#FFFFFF" stroke="#442418" stroke-width="6.1314" stroke-miterlimit="10" d="M226.9,177.7l2.8-14.4
		c0,0,61.3-11.8,125.9,0c3.3,14.4,3.3,14.4,3.3,14.4H226.9z"/>
	
		<rect x="259.4" y="222.9" fill="#F5B140" stroke="#442418" stroke-width="2.232" stroke-miterlimit="10" width="10.8" height="23.2"/>
	
		<rect x="259.4" y="281.7" fill="#F5B140" stroke="#442418" stroke-width="2.232" stroke-miterlimit="10" width="10.8" height="23.2"/>
	
		<rect x="315.5" y="281.7" fill="#F5B140" stroke="#442418" stroke-width="2.232" stroke-miterlimit="10" width="10.8" height="23.2"/>
	
		<rect x="315.5" y="222.9" fill="#F5B140" stroke="#442418" stroke-width="2.232" stroke-miterlimit="10" width="10.8" height="23.2"/>
	<g>
		<g>
			
				<line fill="#FFFFFF" stroke="#442418" stroke-width="0.576" stroke-miterlimit="10" x1="343.4" y1="201.7" x2="356.4" y2="202.6"/>
			<line fill="#FFFFFF" stroke="#442418" stroke-width="0.576" stroke-miterlimit="10" x1="343" y1="207" x2="356.1" y2="207.9"/>
			<line fill="#FFFFFF" stroke="#442418" stroke-width="0.576" stroke-miterlimit="10" x1="342.6" y1="213" x2="355.7" y2="213.9"/>
			
				<line fill="#FFFFFF" stroke="#442418" stroke-width="0.576" stroke-miterlimit="10" x1="342.2" y1="218.6" x2="355.3" y2="219.5"/>
		</g>
		<g>
			
				<line fill="#FFFFFF" stroke="#442418" stroke-width="0.576" stroke-miterlimit="10" x1="341.8" y1="224.5" x2="354.9" y2="225.4"/>
			
				<line fill="#FFFFFF" stroke="#442418" stroke-width="0.576" stroke-miterlimit="10" x1="341.4" y1="229.7" x2="354.5" y2="230.6"/>
			<line fill="#FFFFFF" stroke="#442418" stroke-width="0.576" stroke-miterlimit="10" x1="341" y1="235.7" x2="354.1" y2="236.6"/>
			
				<line fill="#FFFFFF" stroke="#442418" stroke-width="0.576" stroke-miterlimit="10" x1="340.6" y1="241.3" x2="353.7" y2="242.2"/>
		</g>
		<g>
			<line fill="#FFFFFF" stroke="#442418" stroke-width="0.576" stroke-miterlimit="10" x1="339.3" y1="247.1" x2="352.3" y2="248"/>
			
				<line fill="#FFFFFF" stroke="#442418" stroke-width="0.576" stroke-miterlimit="10" x1="338.9" y1="252.3" x2="351.9" y2="253.2"/>
			
				<line fill="#FFFFFF" stroke="#442418" stroke-width="0.576" stroke-miterlimit="10" x1="338.5" y1="258.3" x2="351.5" y2="259.2"/>
			
				<line fill="#FFFFFF" stroke="#442418" stroke-width="0.576" stroke-miterlimit="10" x1="338.1" y1="263.9" x2="351.2" y2="264.8"/>
		</g>
		<g>
			
				<line fill="#FFFFFF" stroke="#442418" stroke-width="0.576" stroke-miterlimit="10" x1="336.7" y1="268.9" x2="349.8" y2="269.8"/>
			<line fill="#FFFFFF" stroke="#442418" stroke-width="0.576" stroke-miterlimit="10" x1="336.4" y1="274.1" x2="349.4" y2="275"/>
			<line fill="#FFFFFF" stroke="#442418" stroke-width="0.576" stroke-miterlimit="10" x1="336" y1="280.1" x2="349" y2="281"/>
			
				<line fill="#FFFFFF" stroke="#442418" stroke-width="0.576" stroke-miterlimit="10" x1="335.6" y1="285.7" x2="348.6" y2="286.6"/>
		</g>
		<g>
			
				<line fill="#FFFFFF" stroke="#442418" stroke-width="0.576" stroke-miterlimit="10" x1="334.2" y1="291.2" x2="347.3" y2="292.1"/>
			
				<line fill="#FFFFFF" stroke="#442418" stroke-width="0.576" stroke-miterlimit="10" x1="333.8" y1="296.5" x2="346.9" y2="297.4"/>
			
				<line fill="#FFFFFF" stroke="#442418" stroke-width="0.576" stroke-miterlimit="10" x1="333.4" y1="302.5" x2="346.5" y2="303.4"/>
			<line fill="#FFFFFF" stroke="#442418" stroke-width="0.576" stroke-miterlimit="10" x1="333" y1="308.1" x2="346.1" y2="309"/>
		</g>
		<g>
			
				<line fill="#FFFFFF" stroke="#442418" stroke-width="0.576" stroke-miterlimit="10" x1="332.7" y1="312.9" x2="345.8" y2="313.8"/>
			<line fill="#FFFFFF" stroke="#442418" stroke-width="0.576" stroke-miterlimit="10" x1="332.4" y1="318.1" x2="345.4" y2="319"/>
			<line fill="#FFFFFF" stroke="#442418" stroke-width="0.576" stroke-miterlimit="10" x1="331.9" y1="324.1" x2="345" y2="325"/>
			
				<line fill="#FFFFFF" stroke="#442418" stroke-width="0.576" stroke-miterlimit="10" x1="331.6" y1="329.7" x2="344.6" y2="330.6"/>
		</g>
		<line fill="#FFFFFF" stroke="#442418" stroke-width="0.576" stroke-miterlimit="10" x1="330.1" y1="335" x2="343.2" y2="335.9"/>
		
			<line fill="#FFFFFF" stroke="#442418" stroke-width="0.576" stroke-miterlimit="10" x1="329.8" y1="340.2" x2="342.8" y2="341.1"/>
	</g>
	<line fill="none" stroke="#F5B141" stroke-width="1.2908" stroke-miterlimit="10" x1="332.4" y1="346.2" x2="345.4" y2="347.1"/>
	<g>
		<g>
			
				<line fill="#FFFFFF" stroke="#442418" stroke-width="0.576" stroke-miterlimit="10" x1="246.4" y1="348.6" x2="259.4" y2="346.9"/>
			
				<line fill="#FFFFFF" stroke="#442418" stroke-width="0.576" stroke-miterlimit="10" x1="245.8" y1="343.3" x2="258.8" y2="341.7"/>
			<line fill="#FFFFFF" stroke="#442418" stroke-width="0.576" stroke-miterlimit="10" x1="245" y1="337.4" x2="258" y2="335.7"/>
			
				<line fill="#FFFFFF" stroke="#442418" stroke-width="0.576" stroke-miterlimit="10" x1="244.3" y1="331.8" x2="257.3" y2="330.2"/>
		</g>
		<g>
			<line fill="#FFFFFF" stroke="#442418" stroke-width="0.576" stroke-miterlimit="10" x1="243.6" y1="326" x2="256.5" y2="324.3"/>
			
				<line fill="#FFFFFF" stroke="#442418" stroke-width="0.576" stroke-miterlimit="10" x1="242.9" y1="320.7" x2="255.9" y2="319.1"/>
			
				<line fill="#FFFFFF" stroke="#442418" stroke-width="0.576" stroke-miterlimit="10" x1="242.1" y1="314.8" x2="255.1" y2="313.1"/>
			
				<line fill="#FFFFFF" stroke="#442418" stroke-width="0.576" stroke-miterlimit="10" x1="241.4" y1="309.2" x2="254.4" y2="307.5"/>
		</g>
		<g>
			
				<line fill="#FFFFFF" stroke="#442418" stroke-width="0.576" stroke-miterlimit="10" x1="240.7" y1="303.5" x2="253.7" y2="301.9"/>
			<line fill="#FFFFFF" stroke="#442418" stroke-width="0.576" stroke-miterlimit="10" x1="240" y1="298.3" x2="253" y2="296.6"/>
			
				<line fill="#FFFFFF" stroke="#442418" stroke-width="0.576" stroke-miterlimit="10" x1="239.3" y1="292.3" x2="252.3" y2="290.7"/>
			
				<line fill="#FFFFFF" stroke="#442418" stroke-width="0.576" stroke-miterlimit="10" x1="238.6" y1="286.8" x2="251.5" y2="285.1"/>
		</g>
		<g>
			
				<line fill="#FFFFFF" stroke="#442418" stroke-width="0.576" stroke-miterlimit="10" x1="237.9" y1="281.8" x2="250.9" y2="280.2"/>
			
				<line fill="#FFFFFF" stroke="#442418" stroke-width="0.576" stroke-miterlimit="10" x1="237.3" y1="276.6" x2="250.2" y2="274.9"/>
			<line fill="#FFFFFF" stroke="#442418" stroke-width="0.576" stroke-miterlimit="10" x1="236.5" y1="270.6" x2="249.5" y2="269"/>
			
				<line fill="#FFFFFF" stroke="#442418" stroke-width="0.576" stroke-miterlimit="10" x1="235.8" y1="265.1" x2="248.8" y2="263.4"/>
		</g>
		<g>
			<line fill="#FFFFFF" stroke="#442418" stroke-width="0.576" stroke-miterlimit="10" x1="235.1" y1="259.6" x2="248.1" y2="258"/>
			
				<line fill="#FFFFFF" stroke="#442418" stroke-width="0.576" stroke-miterlimit="10" x1="234.4" y1="254.4" x2="247.4" y2="252.7"/>
			
				<line fill="#FFFFFF" stroke="#442418" stroke-width="0.576" stroke-miterlimit="10" x1="233.7" y1="248.4" x2="246.7" y2="246.8"/>
			<line fill="#FFFFFF" stroke="#442418" stroke-width="0.576" stroke-miterlimit="10" x1="233" y1="242.9" x2="245.9" y2="241.2"/>
		</g>
		<g>
			
				<line fill="#FFFFFF" stroke="#442418" stroke-width="0.576" stroke-miterlimit="10" x1="232.3" y1="238.1" x2="245.3" y2="236.4"/>
			
				<line fill="#FFFFFF" stroke="#442418" stroke-width="0.576" stroke-miterlimit="10" x1="231.7" y1="232.9" x2="244.7" y2="231.2"/>
			
				<line fill="#FFFFFF" stroke="#442418" stroke-width="0.576" stroke-miterlimit="10" x1="230.9" y1="226.9" x2="243.9" y2="225.2"/>
			
				<line fill="#FFFFFF" stroke="#442418" stroke-width="0.576" stroke-miterlimit="10" x1="230.2" y1="221.3" x2="243.2" y2="219.7"/>
		</g>
		
			<line fill="#FFFFFF" stroke="#442418" stroke-width="0.576" stroke-miterlimit="10" x1="228.5" y1="216.2" x2="241.5" y2="214.5"/>
		
			<line fill="#FFFFFF" stroke="#442418" stroke-width="0.576" stroke-miterlimit="10" x1="227.8" y1="210.9" x2="240.8" y2="209.3"/>
		<line fill="#FFFFFF" stroke="#442418" stroke-width="0.576" stroke-miterlimit="10" x1="227.1" y1="205" x2="240.1" y2="203.3"/>
	</g>
	<path fill="none" stroke="#F9F9FA" stroke-width="1.1235" stroke-miterlimit="10" d="M209,395.7l9.5,44.1c0,0,54,6.1,76.3,18.3
		c23.4-11.1,62.1-18.4,74.8-18.3c5.2-16.3,12.6-44.7,12.6-44.7"/>
	<g>
		<line fill="none" stroke="#FEFEFF" stroke-width="0.8068" stroke-miterlimit="10" x1="184.4" y1="407.7" x2="198.8" y2="404.3"/>
		<line fill="none" stroke="#FEFEFF" stroke-width="0.8068" stroke-miterlimit="10" x1="185.8" y1="413.5" x2="200.1" y2="410.1"/>
		<line fill="none" stroke="#FEFEFF" stroke-width="0.8068" stroke-miterlimit="10" x1="187.4" y1="420" x2="201.7" y2="416.7"/>
		<line fill="none" stroke="#FEFEFF" stroke-width="0.8068" stroke-miterlimit="10" x1="188.8" y1="426.2" x2="203.1" y2="422.8"/>
	</g>
	<g>
		<line fill="none" stroke="#FEFEFF" stroke-width="0.8068" stroke-miterlimit="10" x1="190.3" y1="432.7" x2="204.6" y2="429.3"/>
		<line fill="none" stroke="#FEFEFF" stroke-width="0.8068" stroke-miterlimit="10" x1="191.7" y1="438.4" x2="206" y2="435.1"/>
		<line fill="none" stroke="#FEFEFF" stroke-width="0.8068" stroke-miterlimit="10" x1="193.2" y1="445" x2="207.6" y2="441.6"/>
		<line fill="none" stroke="#FEFEFF" stroke-width="0.8068" stroke-miterlimit="10" x1="194.7" y1="451.1" x2="209" y2="447.8"/>
	</g>
	<g>
		<line fill="none" stroke="#FEFEFF" stroke-width="0.8068" stroke-miterlimit="10" x1="386.6" y1="405.7" x2="401" y2="408.8"/>
		<line fill="none" stroke="#FEFEFF" stroke-width="0.8068" stroke-miterlimit="10" x1="385.4" y1="411.5" x2="399.7" y2="414.6"/>
		<line fill="none" stroke="#FEFEFF" stroke-width="0.8068" stroke-miterlimit="10" x1="383.9" y1="418.1" x2="398.3" y2="421.2"/>
		<line fill="none" stroke="#FEFEFF" stroke-width="0.8068" stroke-miterlimit="10" x1="382.6" y1="424.3" x2="396.9" y2="427.4"/>
	</g>
	<g>
		<line fill="none" stroke="#FEFEFF" stroke-width="0.8068" stroke-miterlimit="10" x1="381.1" y1="430.8" x2="395.5" y2="433.9"/>
		<line fill="none" stroke="#FEFEFF" stroke-width="0.8068" stroke-miterlimit="10" x1="379.9" y1="436.6" x2="394.3" y2="439.7"/>
		<line fill="none" stroke="#FEFEFF" stroke-width="0.8068" stroke-miterlimit="10" x1="378.4" y1="443.1" x2="392.8" y2="446.3"/>
		<line fill="none" stroke="#FEFEFF" stroke-width="0.8068" stroke-miterlimit="10" x1="377.1" y1="449.3" x2="391.5" y2="452.5"/>
	</g>
	<g>
		<g>
			<g>
				<polygon fill="#FFFFFF" stroke="#442418" stroke-width="2.5816" stroke-miterlimit="10" points="147.7,370.5 124.9,370.5 
					136.3,404.1 124.9,432.8 169.6,432.8 169.7,380.1 				"/>
				<polygon fill="#FFFFFF" stroke="#442418" stroke-width="2.5816" stroke-miterlimit="10" points="169.6,362.6 147.7,362.6 
					147.7,418.7 173.4,418.7 177.5,362.6 				"/>
				<polygon fill="#FFFFFF" stroke="#442418" stroke-width="2.5816" stroke-miterlimit="10" points="436.4,371.3 459.2,372 
					447,405.2 457.8,434.2 413.2,433 414.2,380.3 				"/>
				<polygon fill="#FFFFFF" stroke="#442418" stroke-width="2.5816" stroke-miterlimit="10" points="414.7,362.8 436.6,363.4 
					435.3,419.5 409.6,418.8 406.7,362.6 				"/>
				<path fill="#FFFFFF" stroke="#442418" stroke-width="2.5816" stroke-miterlimit="10" d="M170.6,353.7c0,0,114.4-28.8,239.9,2
					c-1.1,27.9,0,63,0,63s-114.9-35.4-237,0C167,374.8,170.6,353.7,170.6,353.7z"/>
			</g>
			<g>
				<path fill="#442418" stroke="#442418" stroke-width="1.2908" stroke-miterlimit="10" d="M203.3,384.9l-0.5-16.1l4.8-0.9l4,22
					l-3.3,0.6l-2.8-15.8l0.5,16.2l-3.3,0.6l-5.4-15.1l2.8,15.6l-3,0.5l-4-22l4.8-0.9L203.3,384.9z"/>
				<path fill="#442418" stroke="#442418" stroke-width="1.2908" stroke-miterlimit="10" d="M232.8,387.2l-3.5,0.4l-1.1-4l-4.3,0.5
					l-0.1,4.1l-3.2,0.4l0.8-22.7l5.1-0.6L232.8,387.2z M223.9,381.2l3.4-0.4l-3.1-11L223.9,381.2z"/>
				<path fill="#442418" stroke="#442418" stroke-width="1.2908" stroke-miterlimit="10" d="M239.9,364l3.5-0.3l2,22.3l-3.5,0.3
					L239.9,364z"/>
				<path fill="#442418" stroke="#442418" stroke-width="1.2908" stroke-miterlimit="10" d="M257.6,368.9l0.9,16.2l-3.2,0.2
					l-1.2-22.4l4.4-0.2l4.3,13.2l-0.7-13.4l3.1-0.2l1.2,22.4l-3.6,0.2L257.6,368.9z"/>
				<path fill="#442418" stroke="#442418" stroke-width="1.2908" stroke-miterlimit="10" d="M288.7,361.6c3.4,0,5.2,2.1,5.2,5.6
					l0,0.7l-3.3,0l0-0.9c0-1.6-0.6-2.2-1.8-2.2s-1.8,0.6-1.8,2.2c0,4.6,6.9,5.5,6.9,11.9c0,3.6-1.8,5.6-5.3,5.6
					c-3.5,0-5.2-2.1-5.2-5.6l0-1.4l3.3,0l0,1.6c0,1.6,0.7,2.2,1.8,2.2s1.8-0.6,1.8-2.2c0-4.6-6.9-5.5-6.9-11.9
					C283.5,363.6,285.3,361.6,288.7,361.6z"/>
				<path fill="#442418" stroke="#442418" stroke-width="1.2908" stroke-miterlimit="10" d="M303.2,362l10.9,0.4l-0.1,3.2l-3.7-0.2
					l-0.8,19.2l-3.5-0.1l0.8-19.2l-3.7-0.2L303.2,362z"/>
				<path fill="#442418" stroke="#442418" stroke-width="1.2908" stroke-miterlimit="10" d="M329.5,386c-0.1-0.6-0.2-1-0.1-2.8
					l0.3-3.5c0.2-2.1-0.5-2.9-2.1-3l-1.2-0.1l-0.8,9.1l-3.5-0.3l1.9-22.3l5.3,0.4c3.6,0.3,5.1,2.1,4.8,5.6l-0.1,1.8
					c-0.2,2.3-1.1,3.7-2.7,4.3c1.7,0.9,2.1,2.6,1.9,4.9l-0.3,3.4c-0.1,1.1-0.1,1.9,0.2,2.7L329.5,386z M327.3,366.6l-0.6,6.9
					l1.4,0.1c1.3,0.1,2.2-0.4,2.3-2.2l0.2-2.2c0.1-1.6-0.4-2.3-1.6-2.4L327.3,366.6z"/>
				<path fill="#442418" stroke="#442418" stroke-width="1.2908" stroke-miterlimit="10" d="M347.5,374.9l4.8,0.6l-0.4,3.2l-4.8-0.6
					l-0.8,6.5l6,0.8l-0.4,3.2l-9.5-1.2l2.8-22.2l9.5,1.2l-0.4,3.2l-6-0.8L347.5,374.9z"/>
				<path fill="#442418" stroke="#442418" stroke-width="1.2908" stroke-miterlimit="10" d="M367.1,377.8l4.8,0.8l-0.5,3.2l-4.8-0.8
					l-1.1,6.5l6,1l-0.5,3.2l-9.5-1.6l3.8-22.1l9.5,1.6l-0.5,3.2l-6-1L367.1,377.8z"/>
				<path fill="#442418" stroke="#442418" stroke-width="1.2908" stroke-miterlimit="10" d="M384.1,371.4l10.6,2.3l-0.7,3.1
					l-3.6-0.8l-4.1,18.8l-3.4-0.8l4.1-18.8l-3.6-0.8L384.1,371.4z"/>
			</g>
		</g>
		<g>
			<g>
				
					<line fill="none" stroke="#F5B141" stroke-width="1.2908" stroke-miterlimit="10" x1="155.7" y1="368.3" x2="170.4" y2="368.3"/>
				
					<line fill="none" stroke="#F5B141" stroke-width="1.2908" stroke-miterlimit="10" x1="155.7" y1="374.3" x2="170.5" y2="374.2"/>
				<line fill="none" stroke="#F5B141" stroke-width="1.2908" stroke-miterlimit="10" x1="155.8" y1="381" x2="170.5" y2="381"/>
				
					<line fill="none" stroke="#F5B141" stroke-width="1.2908" stroke-miterlimit="10" x1="155.8" y1="387.3" x2="170.5" y2="387.3"/>
			</g>
			<g>
				<line fill="none" stroke="#F5B141" stroke-width="1.2908" stroke-miterlimit="10" x1="155.8" y1="394" x2="170.6" y2="393.9"/>
				
					<line fill="none" stroke="#F5B141" stroke-width="1.2908" stroke-miterlimit="10" x1="155.9" y1="399.9" x2="170.6" y2="399.9"/>
				
					<line fill="none" stroke="#F5B141" stroke-width="1.2908" stroke-miterlimit="10" x1="155.9" y1="406.7" x2="170.6" y2="406.6"/>
				<line fill="none" stroke="#F5B141" stroke-width="1.2908" stroke-miterlimit="10" x1="155.9" y1="413" x2="170.7" y2="412.9"/>
			</g>
		</g>
		<g>
			<g>
				
					<line fill="none" stroke="#F5B141" stroke-width="1.2908" stroke-miterlimit="10" x1="410.5" y1="368.8" x2="425.2" y2="368.8"/>
				
					<line fill="none" stroke="#F5B141" stroke-width="1.2908" stroke-miterlimit="10" x1="410.5" y1="374.8" x2="425.3" y2="374.7"/>
				
					<line fill="none" stroke="#F5B141" stroke-width="1.2908" stroke-miterlimit="10" x1="410.6" y1="381.5" x2="425.3" y2="381.4"/>
				
					<line fill="none" stroke="#F5B141" stroke-width="1.2908" stroke-miterlimit="10" x1="410.6" y1="387.8" x2="425.3" y2="387.8"/>
			</g>
			<g>
				
					<line fill="none" stroke="#F5B141" stroke-width="1.2908" stroke-miterlimit="10" x1="410.6" y1="394.5" x2="425.4" y2="394.4"/>
				
					<line fill="none" stroke="#F5B141" stroke-width="1.2908" stroke-miterlimit="10" x1="410.7" y1="400.4" x2="425.4" y2="400.3"/>
				
					<line fill="none" stroke="#F5B141" stroke-width="1.2908" stroke-miterlimit="10" x1="410.7" y1="407.2" x2="425.4" y2="407.1"/>
				
					<line fill="none" stroke="#F5B141" stroke-width="1.2908" stroke-miterlimit="10" x1="410.7" y1="413.5" x2="425.5" y2="413.4"/>
			</g>
		</g>
	</g>
</g>
<g id="Layer_10" display="none">
</g>
</svg>
